<svg width="29" height="19" viewBox="0 0 29 19" fill="none" xmlns="http://www.w3.org/2000/svg">
<path d="M27.8477 5.29774H19.0395C18.9213 5.29774 18.8079 5.25078 18.7243 5.16718C18.6407 5.08359 18.5938 4.97021 18.5938 4.852C18.5938 4.73378 18.6407 4.6204 18.7243 4.53681C18.8079 4.45321 18.9213 4.40625 19.0395 4.40625H27.8477C27.9062 4.40625 27.9642 4.41778 28.0182 4.44018C28.0723 4.46258 28.1215 4.49541 28.1629 4.53681C28.2042 4.5782 28.2371 4.62734 28.2595 4.68142C28.2819 4.7355 28.2934 4.79346 28.2934 4.852C28.2934 4.91053 28.2819 4.96849 28.2595 5.02257C28.2371 5.07665 28.2042 5.12579 28.1629 5.16718C28.1215 5.20858 28.0723 5.24141 28.0182 5.26381C27.9642 5.28621 27.9062 5.29774 27.8477 5.29774Z" fill="black"/>
<path d="M9.25369 5.29774H0.446229C0.387693 5.29774 0.329736 5.28621 0.275656 5.26381C0.221575 5.24141 0.172435 5.20858 0.131044 5.16718C0.0896527 5.12579 0.0568143 5.07665 0.0344135 5.02257C0.0120127 4.96849 0.000488281 4.91053 0.000488281 4.852C0.000488281 4.79346 0.0120127 4.7355 0.0344135 4.68142C0.0568143 4.62734 0.0896527 4.5782 0.131044 4.53681C0.172435 4.49541 0.221575 4.46258 0.275656 4.44018C0.329736 4.41778 0.387693 4.40625 0.446229 4.40625H9.25369C9.31223 4.40625 9.37019 4.41778 9.42427 4.44018C9.47835 4.46258 9.5275 4.49541 9.56889 4.53681C9.61028 4.5782 9.64311 4.62734 9.66551 4.68142C9.68791 4.7355 9.69945 4.79346 9.69945 4.852C9.69945 4.91053 9.68791 4.96849 9.66551 5.02257C9.64311 5.07665 9.61028 5.12579 9.56889 5.16718C9.5275 5.20858 9.47835 5.24141 9.42427 5.26381C9.37019 5.28621 9.31223 5.29774 9.25369 5.29774Z" fill="black"/>
<path d="M9.74398 14.5938C9.65547 14.5942 9.56885 14.5682 9.49516 14.5192C9.42147 14.4701 9.36406 14.4003 9.33023 14.3185C9.2964 14.2367 9.28769 14.1467 9.3052 14.0599C9.32271 13.9731 9.36565 13.8936 9.42856 13.8313L13.8313 9.42861C13.9148 9.34495 14.0282 9.29792 14.1464 9.29785C14.2647 9.29779 14.3781 9.3447 14.4617 9.42826C14.5454 9.51182 14.5924 9.62519 14.5925 9.74343C14.5926 9.86167 14.5457 9.97509 14.4621 10.0587L10.0594 14.4614C10.0181 14.5032 9.96901 14.5363 9.91489 14.5591C9.86076 14.5818 9.80268 14.5936 9.74398 14.5938Z" fill="black"/>
<path d="M18.5527 14.5941C18.4941 14.5943 18.4361 14.5829 18.382 14.5605C18.3278 14.5381 18.2786 14.5052 18.2373 14.4638L13.8318 10.0618C13.7482 9.97812 13.7012 9.86466 13.7012 9.74636C13.7012 9.62805 13.7482 9.5146 13.8318 9.43094C13.9155 9.34729 14.0289 9.30029 14.1472 9.30029C14.2655 9.30029 14.379 9.34729 14.4627 9.43094L18.8681 13.8329C18.931 13.8952 18.974 13.9748 18.9915 14.0616C19.009 14.1483 19.0003 14.2383 18.9665 14.3201C18.9326 14.4019 18.8752 14.4718 18.8015 14.5208C18.7278 14.5699 18.6412 14.5959 18.5527 14.5955V14.5941Z" fill="black"/>
<path d="M14.1468 10.1918C14.0881 10.1918 14.0301 10.1802 13.976 10.1577C13.9219 10.1353 13.8727 10.1023 13.8313 10.0608L4.53307 0.762555C4.4702 0.700331 4.42726 0.620807 4.40972 0.534108C4.39219 0.447409 4.40085 0.357456 4.4346 0.275692C4.46835 0.193927 4.52565 0.124052 4.59923 0.0749583C4.67281 0.0258648 4.75934 -0.000226537 4.8478 3.86882e-06H23.445C23.5335 -0.000364823 23.6202 0.0256259 23.6938 0.0746664C23.7675 0.123707 23.825 0.193577 23.8588 0.27537C23.8926 0.357163 23.9013 0.447174 23.8838 0.533938C23.8663 0.620703 23.8233 0.700289 23.7604 0.762555L14.4622 10.0608C14.3786 10.1446 14.2651 10.1917 14.1468 10.1918ZM5.92437 0.892882L14.1468 9.11526L22.3691 0.892882H5.92437Z" fill="black"/>
<path d="M14.1472 19.0001C14.0886 19.0001 14.0305 18.9886 13.9764 18.9661C13.9222 18.9436 13.8731 18.9106 13.8317 18.8691L0.130793 5.1681C0.0893327 5.1267 0.0564342 5.07753 0.0339929 5.0234C0.0115515 4.96928 0 4.91127 0 4.85268C0 4.79409 0.0115515 4.73607 0.0339929 4.68195C0.0564342 4.62783 0.0893327 4.57866 0.130793 4.53726L4.53349 0.131792C4.61879 0.0513077 4.73163 0.00647873 4.84891 0.00647873C4.96619 0.00647873 5.07901 0.0513077 5.16431 0.131792L14.1479 9.11534L23.1314 0.131792C23.215 0.0484604 23.3281 0.00160285 23.4461 0.00146484C23.5641 0.00160285 23.6773 0.0484604 23.7609 0.131792L28.1635 4.53518C28.2471 4.61888 28.2941 4.73232 28.2941 4.8506C28.2941 4.96887 28.2471 5.08231 28.1635 5.16601L14.4626 18.8691C14.4213 18.9106 14.3721 18.9436 14.318 18.9661C14.2638 18.9886 14.2058 19.0001 14.1472 19.0001ZM1.07635 4.85268L14.1472 17.9235L27.218 4.85268L23.4454 1.07805L14.4626 10.0609C14.3775 10.1417 14.2645 10.1867 14.1472 10.1867C14.0298 10.1867 13.9169 10.1417 13.8317 10.0609L4.84891 1.07805L1.07635 4.85268Z" fill="black"/>
</svg>
