<svg width="16" height="17" viewBox="0 0 16 17" fill="none" xmlns="http://www.w3.org/2000/svg">
<circle cx="8.0026" cy="8.90379" r="6.66667" stroke="#464646"/>
<path fill-rule="evenodd" clip-rule="evenodd" d="M8.42513 9.92305V10.1828H7.36784L7.36328 9.87292C7.32227 9.18933 7.58659 8.77917 8.21549 8.41003C8.7806 8.06824 8.972 7.8267 8.972 7.37553C8.972 6.90157 8.58919 6.55977 8.01497 6.55977C7.42708 6.55977 7.04883 6.91524 7.01237 7.47123H5.94141C5.97786 6.39115 6.7207 5.6073 8.07422 5.6073C9.32292 5.6073 10.1569 6.32735 10.1569 7.33451C10.1569 8.03178 9.81055 8.51941 9.19075 8.88855C8.59375 9.23946 8.42513 9.47188 8.42513 9.92305ZM8.70443 11.6324C8.70443 12.0699 8.41276 12.357 7.94792 12.357C7.49219 12.357 7.19141 12.0699 7.19141 11.6324C7.19141 11.1904 7.49219 10.9033 7.94792 10.9033C8.41276 10.9033 8.70443 11.1904 8.70443 11.6324Z" fill="#464646"/>
</svg>
