<svg width="40" height="40" viewBox="0 0 40 40" fill="none" xmlns="http://www.w3.org/2000/svg">
<path d="M25.0052 23.9515L25.0026 23.9537C24.1045 24.7135 23.0586 25.5572 21.6157 25.2045C20.9154 25.0333 20.1212 24.4947 19.4404 23.9498C18.7408 23.39 18.0872 22.7621 17.6586 22.3341C17.2271 21.9058 16.6011 21.2548 16.0437 20.5569C15.5009 19.8774 14.9663 19.0852 14.7949 18.3838C14.4412 16.9373 15.2819 15.8883 16.0477 14.9945L16.0478 14.9943C16.1496 14.8757 16.2558 14.7701 16.3457 14.6808C16.3605 14.666 16.3749 14.6518 16.3887 14.6379C16.4914 14.5353 16.5756 14.4473 16.6521 14.3466C16.7946 14.1591 16.9378 13.891 17.0306 13.3773L17.0307 13.3766C17.0584 13.2248 17.0091 12.9026 16.816 12.4097C16.6336 11.9439 16.3564 11.4073 16.0361 10.8712C15.3857 9.78265 14.6148 8.78994 14.1979 8.43834L25.0052 23.9515ZM25.0052 23.9515C25.1234 23.8502 25.2287 23.7443 25.3179 23.6547M25.0052 23.9515L25.3179 23.6547M8.52055 11.1843L8.52049 11.185C8.35984 13.097 9.15464 15.3983 10.5208 17.7473C11.8788 20.0824 13.7629 22.3988 15.6812 24.3194C17.5994 26.2398 19.9143 28.1234 22.2492 29.4807C24.5978 30.8459 26.9005 31.6398 28.8157 31.4796C30.3399 31.3515 31.5688 30.5418 32.142 29.4848C32.7001 28.4556 32.6758 27.1222 31.5622 25.8013C31.2106 25.3846 30.2179 24.6144 29.1291 23.9645C28.5929 23.6444 28.0562 23.3673 27.5904 23.1849C27.0974 22.9918 26.7751 22.9422 26.6232 22.9697L8.52055 11.1843ZM8.52055 11.1843C8.64646 9.65999 9.45575 8.43103 10.5131 7.85787M8.52055 11.1843L10.5131 7.85787M25.3179 23.6547C25.3329 23.6397 25.3474 23.6251 25.3614 23.6111M25.3179 23.6547L25.3614 23.6111M25.3614 23.6111C25.4641 23.5085 25.5522 23.4244 25.6529 23.348M25.3614 23.6111L25.6529 23.348M25.6529 23.348C25.8408 23.2056 26.1092 23.0625 26.6231 22.9697L25.6529 23.348ZM10.5131 7.85787C11.5426 7.29978 12.877 7.32427 14.1979 8.43832L10.5131 7.85787Z" stroke="white"/>
<circle cx="20" cy="20" r="19.5" stroke="white"/>
</svg>
