<svg width="17" height="12" viewBox="0 0 17 12" fill="none" xmlns="http://www.w3.org/2000/svg">
<path d="M6.36172 11.5352C6.23032 11.5348 6.10041 11.5073 5.98006 11.4546C5.85971 11.4018 5.7515 11.3249 5.66214 11.2285L1.00464 6.27394C0.830538 6.0884 0.737271 5.8413 0.745358 5.58699C0.753446 5.33268 0.862225 5.092 1.04777 4.9179C1.23331 4.7438 1.48041 4.65053 1.73472 4.65862C1.98903 4.66671 2.2297 4.77549 2.40381 4.96103L6.35214 9.16811L14.4117 0.351443C14.4935 0.249593 14.5953 0.16554 14.7107 0.104445C14.8262 0.0433499 14.9529 0.00650338 15.0831 -0.00383162C15.2133 -0.0141666 15.3443 0.00222822 15.4679 0.0443457C15.5916 0.0864632 15.7053 0.153414 15.8022 0.241086C15.899 0.328759 15.9769 0.435302 16.031 0.554171C16.0852 0.67304 16.1145 0.801726 16.1171 0.932325C16.1197 1.06292 16.0956 1.19268 16.0462 1.31362C15.9969 1.43456 15.9233 1.54413 15.8301 1.63561L7.07089 11.2189C6.98238 11.317 6.87454 11.3958 6.75415 11.4502C6.63376 11.5046 6.50342 11.5336 6.37131 11.5352H6.36172Z" fill="#231F20"/>
</svg>
