<svg width="64" height="61" viewBox="0 0 64 61" fill="none" xmlns="http://www.w3.org/2000/svg">
<path d="M28.4406 2.984C30.4012 -0.994666 33.6406 -0.994666 35.6012 2.984L39.547 10.9292C40.7595 13.0695 42.4183 14.9261 44.4119 16.374C46.4054 17.822 48.6873 18.8276 51.1039 19.3232L59.9208 20.5362C64.3293 21.1791 65.3157 24.2358 62.1372 27.3411L55.7559 33.5275C54.0753 35.3596 52.8123 37.532 52.0535 39.8958C51.2946 42.2596 51.0579 44.7589 51.3596 47.2224L52.8697 55.9682C53.6248 60.335 51.0065 62.2272 47.073 60.1651L39.1816 56.0409C36.9326 55.0156 34.4882 54.4849 32.0148 54.4849C29.5414 54.4849 27.097 55.0156 24.848 56.0409L16.9688 60.1651C13.0232 62.2272 10.417 60.335 11.1721 55.9682L12.67 47.2224C12.9513 44.7765 12.7022 42.2991 11.9395 39.9574C11.1769 37.6157 9.91848 35.4644 8.24935 33.6488L1.86807 27.4625C-1.32258 24.3572 -0.323971 21.3004 4.08448 20.6575L12.9014 19.4444C15.325 18.9508 17.6141 17.9449 19.6141 16.4948C21.6141 15.0446 23.2785 13.1839 24.4949 11.0383L28.4406 2.984Z" fill="url(#paint0_linear_1991_956)"/>
<defs>
<linearGradient id="paint0_linear_1991_956" x1="32" y1="5.95578e-07" x2="51.0352" y2="69.1983" gradientUnits="userSpaceOnUse">
<stop offset="0.155" stop-color="#E0D4B3"/>
<stop offset="0.51" stop-color="white"/>
<stop offset="0.92" stop-color="#E0D4B3"/>
</linearGradient>
</defs>
</svg>
