<svg width="24" height="23" viewBox="0 0 24 23" fill="none" xmlns="http://www.w3.org/2000/svg">
<path d="M10.6652 1.12511C11.4005 -0.375038 12.6152 -0.375038 13.3505 1.12511L14.8301 4.12084C15.2848 4.92784 15.9069 5.62787 16.6545 6.17381C17.402 6.71976 18.2577 7.09893 19.164 7.28579L22.4703 7.74315C24.1235 7.98555 24.4934 9.1381 23.3015 10.309L20.9085 12.6415C20.2782 13.3323 19.8046 14.1514 19.52 15.0427C19.2355 15.934 19.1467 16.8763 19.2599 17.8052L19.8262 21.1028C20.1093 22.7493 19.1274 23.4627 17.6524 22.6852L14.6931 21.1302C13.8497 20.7436 12.9331 20.5435 12.0056 20.5435C11.078 20.5435 10.1614 20.7436 9.31801 21.1302L6.36332 22.6852C4.88368 23.4627 3.90639 22.7493 4.18953 21.1028L4.75125 17.8052C4.85672 16.883 4.76331 15.9488 4.47732 15.0659C4.19133 14.183 3.71943 13.3718 3.09351 12.6873L0.700526 10.3547C-0.495968 9.18386 -0.121489 8.03128 1.53168 7.78888L4.83802 7.33151C5.74688 7.14538 6.60529 6.76612 7.3553 6.21934C8.1053 5.67256 8.72944 4.97099 9.18557 4.16199L10.6652 1.12511Z" fill="#DACEC3"/>
</svg>
