<svg width="27" height="19" viewBox="0 0 27 19" fill="none" xmlns="http://www.w3.org/2000/svg">
<path d="M26.5743 5.05531H18.169C18.0562 5.05531 17.948 5.01049 17.8682 4.93072C17.7885 4.85095 17.7437 4.74276 17.7437 4.62995C17.7437 4.51714 17.7885 4.40894 17.8682 4.32917C17.948 4.2494 18.0562 4.20459 18.169 4.20459H26.5743C26.6302 4.20459 26.6855 4.21559 26.7371 4.23697C26.7887 4.25834 26.8356 4.28968 26.8751 4.32917C26.9146 4.36867 26.9459 4.41557 26.9673 4.46717C26.9887 4.51878 26.9997 4.57409 26.9997 4.62995C26.9997 4.68581 26.9887 4.74112 26.9673 4.79272C26.9459 4.84433 26.9146 4.89122 26.8751 4.93072C26.8356 4.97022 26.7887 5.00155 26.7371 5.02293C26.6855 5.04431 26.6302 5.05531 26.5743 5.05531Z" fill="white"/>
<path d="M8.83049 5.05531H0.425843C0.369984 5.05531 0.314678 5.04431 0.263071 5.02293C0.211464 5.00155 0.164571 4.97022 0.125073 4.93072C0.0855747 4.89122 0.0542382 4.84433 0.0328619 4.79272C0.0114856 4.74112 0.000488281 4.68581 0.000488281 4.62995C0.000488281 4.57409 0.0114856 4.51878 0.0328619 4.46717C0.0542382 4.41557 0.0855747 4.36867 0.125073 4.32917C0.164571 4.28968 0.211464 4.25834 0.263071 4.23697C0.314678 4.21559 0.369984 4.20459 0.425843 4.20459H8.83049C8.88635 4.20459 8.94166 4.21559 8.99327 4.23697C9.04487 4.25834 9.09177 4.28968 9.13127 4.32917C9.17077 4.36867 9.2021 4.41557 9.22348 4.46717C9.24485 4.51878 9.25586 4.57409 9.25586 4.62995C9.25586 4.68581 9.24485 4.74112 9.22348 4.79272C9.2021 4.84433 9.17077 4.89122 9.13127 4.93072C9.09177 4.97022 9.04487 5.00155 8.99327 5.02293C8.94166 5.04431 8.88635 5.05531 8.83049 5.05531Z" fill="white"/>
<path d="M9.29822 13.9263C9.21376 13.9267 9.13109 13.9019 9.06078 13.8551C8.99046 13.8083 8.93568 13.7416 8.90339 13.6636C8.87111 13.5855 8.86279 13.4996 8.8795 13.4168C8.89622 13.334 8.93719 13.2581 8.99722 13.1987L13.1986 8.99733C13.2783 8.9175 13.3865 8.87262 13.4993 8.87256C13.6122 8.8725 13.7204 8.91726 13.8002 8.997C13.88 9.07674 13.9249 9.18493 13.925 9.29776C13.925 9.41059 13.8803 9.51883 13.8005 9.59866L9.59922 13.8C9.55982 13.8398 9.51296 13.8715 9.46131 13.8931C9.40966 13.9148 9.35423 13.9261 9.29822 13.9263Z" fill="white"/>
<path d="M17.7041 13.9267C17.6482 13.9269 17.5928 13.916 17.5412 13.8946C17.4895 13.8733 17.4426 13.8419 17.4031 13.8023L13.1991 9.60166C13.1193 9.52183 13.0745 9.41356 13.0745 9.30067C13.0745 9.18777 13.1193 9.0795 13.1991 8.99967C13.279 8.91985 13.3872 8.875 13.5001 8.875C13.613 8.875 13.7213 8.91985 13.8011 8.99967L18.0051 13.2003C18.0651 13.2598 18.1061 13.3357 18.1228 13.4185C18.1395 13.5013 18.1312 13.5872 18.0989 13.6652C18.0667 13.7433 18.0119 13.81 17.9415 13.8568C17.8712 13.9036 17.7886 13.9284 17.7041 13.928V13.9267Z" fill="white"/>
<path d="M13.4998 9.72571C13.4439 9.72568 13.3885 9.71462 13.3369 9.69317C13.2853 9.67172 13.2383 9.64029 13.1988 9.60069L4.32585 0.727679C4.26586 0.668301 4.22488 0.592414 4.20815 0.50968C4.19141 0.426946 4.19968 0.341107 4.23189 0.263083C4.26409 0.185058 4.31877 0.118378 4.38898 0.07153C4.4592 0.0246819 4.54178 -0.000216177 4.62618 3.69187e-06H22.3729C22.4573 -0.000348137 22.54 0.0244539 22.6103 0.0712514C22.6806 0.118049 22.7354 0.184724 22.7677 0.262776C22.8 0.340828 22.8083 0.426723 22.7916 0.509518C22.7749 0.592314 22.7339 0.668261 22.6738 0.727679L13.8008 9.60069C13.721 9.68061 13.6128 9.72558 13.4998 9.72571ZM5.65352 0.852045L13.4998 8.69837L21.3462 0.852045H5.65352Z" fill="white"/>
<path d="M13.5001 18.1312C13.4442 18.1312 13.3888 18.1202 13.3371 18.0987C13.2855 18.0773 13.2386 18.0458 13.1991 18.0061L0.124811 4.9318C0.085247 4.89229 0.0538532 4.84537 0.0324382 4.79372C0.0110232 4.74207 0 4.68672 0 4.6308C0 4.57489 0.0110232 4.51953 0.0324382 4.46788C0.0538532 4.41624 0.085247 4.36932 0.124811 4.32981L4.32614 0.125831C4.40754 0.0490281 4.51523 0.00624942 4.62714 0.00624942C4.73905 0.00624942 4.84672 0.0490281 4.92812 0.125831L13.5008 8.69851L22.0735 0.125831C22.1532 0.046311 22.2612 0.00159654 22.3738 0.00146484C22.4864 0.00159654 22.5944 0.046311 22.6741 0.125831L26.8755 4.32783C26.9552 4.4077 27 4.51595 27 4.62882C27 4.74168 26.9552 4.84994 26.8755 4.92981L13.8011 18.0061C13.7617 18.0458 13.7148 18.0773 13.6631 18.0987C13.6115 18.1202 13.5561 18.1312 13.5001 18.1312ZM1.02712 4.6308L13.5001 17.1038L25.9732 4.6308L22.3731 1.02881L13.8011 9.60083C13.7199 9.67793 13.6121 9.72091 13.5001 9.72091C13.3881 9.72091 13.2804 9.67793 13.1991 9.60083L4.62714 1.02881L1.02712 4.6308Z" fill="white"/>
</svg>
