<svg width="28" height="20" viewBox="0 0 28 20" fill="none" xmlns="http://www.w3.org/2000/svg">
<g clip-path="url(#clip0_2104_936)">
<path d="M9.90731 11.4493C8.41708 11.4476 6.98835 10.844 5.93459 9.77074C4.88084 8.69753 4.28813 7.2424 4.2865 5.72464C4.28813 4.20688 4.88084 2.75176 5.93459 1.67854C6.98835 0.605325 8.41708 0.00166108 9.90731 0C11.3975 0.00166108 12.8263 0.605325 13.88 1.67854C14.9338 2.75176 15.5265 4.20688 15.5281 5.72464C15.5265 7.2424 14.9338 8.69753 13.88 9.77074C12.8263 10.844 11.3975 11.4476 9.90731 11.4493ZM9.90731 0.990132C8.67319 0.990132 7.48957 1.4892 6.6166 2.37765C5.74362 3.2661 5.25273 4.47122 5.25183 5.72813C5.25183 6.98565 5.74231 8.19167 6.61539 9.08087C7.48846 9.97007 8.6726 10.4696 9.90731 10.4696C11.142 10.4696 12.3262 9.97007 13.1992 9.08087C14.0723 8.19167 14.5628 6.98565 14.5628 5.72813C14.5628 4.47061 14.0723 3.26459 13.1992 2.37539C12.3262 1.48619 11.142 0.986647 9.90731 0.986647V0.990132Z" fill="white"/>
<path d="M19.8474 19.9715H0V17.8838C0.00144958 16.6023 0.501918 15.3738 1.39162 14.4676C2.28133 13.5615 3.48762 13.0518 4.74585 13.0503H15.1016C16.3598 13.0518 17.5661 13.5615 18.4558 14.4676C19.3455 15.3738 19.846 16.6023 19.8474 17.8838V19.9715ZM0.968745 18.9869H18.8787V17.8859C18.8783 16.8655 18.4803 15.887 17.7722 15.1652C17.064 14.4434 16.1035 14.0374 15.1016 14.0362H4.74585C3.74444 14.0374 2.78435 14.443 2.07624 15.1642C1.36813 15.8854 0.969832 16.8632 0.968745 17.8831V18.9869Z" fill="white"/>
<path d="M21.9677 0.0375977H20.999V20.0006H21.9677V0.0375977Z" fill="white"/>
<path d="M27.3599 9.52539H23.0248V10.512H27.3599V9.52539Z" fill="white"/>
<path d="M24.8768 6.82235L24.1918 7.52002L27.2572 10.642L27.9422 9.94434L24.8768 6.82235Z" fill="white"/>
<path d="M27.3149 9.3033L24.2496 12.4253L24.9346 13.123L27.9999 10.001L27.3149 9.3033Z" fill="white"/>
</g>
<defs>
<clipPath id="clip0_2104_936">
<rect width="28" height="20" fill="white"/>
</clipPath>
</defs>
</svg>
