<svg width="114" height="33" viewBox="0 0 114 33" fill="none" xmlns="http://www.w3.org/2000/svg">
<path d="M39.7684 22.0563H37.8163C37.7066 22.0563 37.6014 22.0126 37.5238 21.9349C37.4462 21.8571 37.4026 21.7517 37.4026 21.6418V18.5661C36.8316 18.7468 36.2359 18.8372 35.6371 18.834C34.9887 18.8402 34.3442 18.7324 33.7329 18.5156C33.1666 18.3126 32.6475 17.9961 32.2071 17.5856C31.7648 17.1596 31.4205 16.6422 31.1983 16.0692C30.941 15.4155 30.815 14.7172 30.8275 14.0146V12.2455C30.8275 12.1356 30.8711 12.0302 30.9486 11.9524C31.0262 11.8747 31.1314 11.8311 31.2411 11.8311H33.173C33.2827 11.8311 33.3879 11.8747 33.4655 11.9524C33.5431 12.0302 33.5867 12.1356 33.5867 12.2455V13.8352C33.5867 14.659 33.7935 15.2732 34.2046 15.6725C34.4296 15.8779 34.693 16.0366 34.9796 16.1395C35.2662 16.2423 35.5702 16.2871 35.8742 16.2714C36.1231 16.2696 36.3713 16.2451 36.6157 16.1981C36.868 16.1501 37.1454 16.092 37.4203 16.0237V12.2329C37.4203 12.123 37.4638 12.0175 37.5414 11.9398C37.619 11.8621 37.7242 11.8184 37.8339 11.8184H39.786C39.8957 11.8184 40.0009 11.8621 40.0785 11.9398C40.156 12.0175 40.1997 12.123 40.1997 12.2329V21.6241C40.2022 21.6815 40.1927 21.7388 40.1719 21.7924C40.1512 21.846 40.1195 21.8946 40.0789 21.9353C40.0383 21.9759 39.9898 22.0076 39.9363 22.0285C39.8828 22.0493 39.8257 22.0588 39.7684 22.0563Z" fill="#0F0F11"/>
<path d="M59.9968 11.6089C60.8283 11.5813 61.653 11.7678 62.3921 12.1505C63.1313 12.5332 63.7602 13.0994 64.2188 13.7949C64.2783 13.8825 64.3023 13.9895 64.2859 14.0942C64.2695 14.1989 64.2139 14.2934 64.1305 14.3585L62.819 15.3694C62.7341 15.4358 62.6264 15.4662 62.5194 15.4539C62.4123 15.4416 62.3143 15.3877 62.2465 15.3037C62.0202 15.0159 61.7555 14.7608 61.4596 14.5455C61.0347 14.2577 60.5296 14.1126 60.017 14.131C59.6451 14.126 59.2763 14.2001 58.935 14.3484C58.6205 14.4873 58.3368 14.6875 58.1002 14.9372C57.8641 15.1918 57.6791 15.4895 57.5554 15.8142C57.4214 16.1667 57.3546 16.5414 57.3587 16.9186C57.3554 17.299 57.4221 17.6769 57.5554 18.0331C57.6773 18.3617 57.8624 18.6631 58.1002 18.9202C58.3368 19.1699 58.6205 19.3701 58.935 19.509C59.2763 19.6573 59.6451 19.7314 60.017 19.7264C60.5293 19.7457 61.0345 19.6015 61.4596 19.3144C61.7425 19.106 61.9969 18.8613 62.2163 18.5866C62.2837 18.5024 62.3813 18.4479 62.4882 18.4347C62.5951 18.4215 62.703 18.4506 62.7888 18.5158L64.0978 19.5267C64.1808 19.5901 64.2369 19.6827 64.2547 19.7858C64.2724 19.889 64.2506 19.995 64.1936 20.0827C63.7933 20.6991 63.2598 21.2174 62.6324 21.599C61.8322 22.0749 60.9144 22.3149 59.9842 22.2915C59.246 22.2972 58.5139 22.1563 57.8303 21.877C57.1823 21.6153 56.5913 21.2299 56.0901 20.7423C55.33 19.9829 54.8132 19.0137 54.6057 17.9585C54.3981 16.9033 54.5092 15.81 54.9248 14.8185C55.1977 14.1854 55.5938 13.6131 56.0901 13.1353C57.1407 12.1371 58.5364 11.5854 59.9842 11.5962L59.9968 11.6089Z" fill="#0F0F11"/>
<path d="M74.0786 14.1688H71.2588V21.6418C71.2582 21.7515 71.2144 21.8566 71.137 21.9341C71.0596 22.0117 70.9547 22.0556 70.8452 22.0563H68.9108C68.8011 22.0563 68.6959 22.0126 68.6183 21.9349C68.5407 21.8572 68.4971 21.7517 68.4971 21.6418V14.1688H65.6976C65.6432 14.1691 65.5892 14.1586 65.5389 14.1379C65.4886 14.1172 65.4428 14.0867 65.4044 14.0481C65.3659 14.0096 65.3354 13.9637 65.3148 13.9133C65.2941 13.8629 65.2836 13.8088 65.284 13.7543V12.238C65.284 12.128 65.3276 12.0226 65.4052 11.9449C65.4827 11.8672 65.5879 11.8235 65.6976 11.8235H74.0786C74.1883 11.8235 74.2935 11.8672 74.3711 11.9449C74.4486 12.0226 74.4922 12.128 74.4922 12.238V13.7543C74.4925 13.8088 74.4821 13.8629 74.4614 13.9133C74.4407 13.9637 74.4103 14.0096 74.3718 14.0481C74.3333 14.0867 74.2876 14.1172 74.2373 14.1379C74.1869 14.1586 74.133 14.1691 74.0786 14.1688Z" fill="#0F0F11"/>
<path d="M84.463 22.0561H82.5286C82.4189 22.0561 82.3137 22.0124 82.2361 21.9347C82.1585 21.8569 82.1149 21.7515 82.1149 21.6416V19.4555H80.1174L77.9106 22.0561H75.6861C75.6079 22.0562 75.5313 22.0342 75.4651 21.9926C75.399 21.951 75.3459 21.8914 75.3121 21.8208C75.2784 21.7502 75.2652 21.6714 75.2743 21.5936C75.2833 21.5158 75.3142 21.4422 75.3632 21.3813L77.4591 18.7732C76.9555 18.4629 76.5403 18.0276 76.2536 17.5096C75.9488 16.9416 75.7959 16.3043 75.8097 15.6596C75.8004 15.1019 75.9132 14.549 76.1401 14.0397C76.3484 13.5801 76.6539 13.1713 77.0354 12.8418C77.4335 12.5096 77.8915 12.2574 78.3847 12.0988C78.9377 11.9239 79.5149 11.8386 80.0947 11.846H84.463C84.5723 11.8467 84.6768 11.8907 84.7539 11.9683C84.8309 12.046 84.8741 12.151 84.8741 12.2605V21.6517C84.8715 21.7594 84.8272 21.8619 84.7504 21.9374C84.6737 22.0129 84.5706 22.0554 84.463 22.0561ZM80.294 14.1913C79.8667 14.1741 79.446 14.3004 79.0985 14.5502C78.9401 14.6764 78.8142 14.8389 78.7317 15.0241C78.6492 15.2093 78.6123 15.4117 78.6243 15.6141C78.6138 15.8208 78.6512 16.0271 78.7334 16.217C78.8157 16.4068 78.9406 16.575 79.0985 16.7084C79.4359 16.982 79.8602 17.1246 80.294 17.1103H82.0872V14.1913H80.294Z" fill="#0F0F11"/>
<path d="M97.5628 11.9752L93.0886 16.9564L88.6371 11.9752C88.5979 11.9316 88.55 11.8967 88.4966 11.8727C88.4432 11.8488 88.3854 11.8363 88.3268 11.8362H87.7972C87.6875 11.8362 87.5823 11.8799 87.5047 11.9576C87.4271 12.0353 87.3836 12.1407 87.3836 12.2506V21.6419C87.3836 21.7518 87.4271 21.8572 87.5047 21.9349C87.5823 22.0127 87.6875 22.0563 87.7972 22.0563H89.7493C89.859 22.0563 89.9642 22.0127 90.0418 21.9349C90.1193 21.8572 90.1629 21.7518 90.1629 21.6419V17.1636L92.4934 19.7894C92.5318 19.8332 92.5792 19.8682 92.6322 19.8922C92.6853 19.9162 92.7429 19.9285 92.8011 19.9284H93.3559C93.4145 19.9286 93.4724 19.9163 93.5259 19.8923C93.5794 19.8683 93.6272 19.8333 93.6661 19.7894L96.0142 17.1434V21.6419C96.0149 21.7516 96.0587 21.8566 96.1361 21.9342C96.2135 22.0118 96.3183 22.0557 96.4278 22.0563H98.3623C98.4718 22.0557 98.5766 22.0118 98.6541 21.9342C98.7315 21.8566 98.7753 21.7516 98.7759 21.6419V12.2506C98.7753 12.1409 98.7315 12.0359 98.6541 11.9583C98.5766 11.8807 98.4718 11.8368 98.3623 11.8362H97.8705C97.8123 11.8361 97.7547 11.8484 97.7016 11.8724C97.6486 11.8963 97.6012 11.9314 97.5628 11.9752Z" fill="#0F0F11"/>
<path d="M109.599 11.9524L104.063 17.2874V12.2506C104.062 12.1409 104.019 12.0359 103.941 11.9583C103.864 11.8807 103.759 11.8368 103.649 11.8362H101.695C101.585 11.8362 101.48 11.8798 101.402 11.9576C101.325 12.0353 101.281 12.1407 101.281 12.2506V21.6419C101.281 21.7518 101.325 21.8572 101.402 21.9349C101.48 22.0127 101.585 22.0563 101.695 22.0563H102.298C102.405 22.0559 102.508 22.0143 102.585 21.9401L108.101 16.6329V21.6494C108.101 21.7594 108.144 21.8648 108.222 21.9425C108.3 22.0202 108.405 22.0639 108.515 22.0639H110.447C110.556 22.0639 110.661 22.0202 110.739 21.9425C110.817 21.8648 110.86 21.7594 110.86 21.6494V12.2506C110.86 12.1407 110.817 12.0353 110.739 11.9576C110.661 11.8798 110.556 11.8362 110.447 11.8362H109.884C109.778 11.8368 109.676 11.8784 109.599 11.9524Z" fill="#0F0F11"/>
<path fill-rule="evenodd" clip-rule="evenodd" d="M47.658 11.5709C46.76 11.5683 45.8758 11.7928 45.0874 12.2237C44.2991 12.6545 43.6319 13.2777 43.1478 14.0356C42.6637 14.7935 42.3783 15.6615 42.318 16.5594C42.2577 17.4572 42.4244 18.3557 42.8028 19.1718C43.1812 19.9878 43.7589 20.695 44.4826 21.2278C45.2062 21.7607 46.0524 22.1019 46.9426 22.2199C47.8329 22.338 48.7385 22.229 49.5755 21.9031C50.4126 21.5772 51.154 21.0449 51.7312 20.3556C51.3976 20.9966 50.8963 21.5347 50.281 21.9123V22.1878H52.5686C52.623 22.1881 52.6769 22.1777 52.7272 22.1569C52.7776 22.1362 52.8233 22.1057 52.8618 22.0672C52.9003 22.0286 52.9307 21.9828 52.9514 21.9323C52.972 21.8819 52.9825 21.8279 52.9822 21.7733V16.8907C52.9755 15.4792 52.4119 14.1277 51.4145 13.131C50.417 12.1344 49.0666 11.5735 47.658 11.5709ZM47.658 19.5089C47.1468 19.5099 46.6468 19.359 46.2212 19.0754C45.7955 18.7917 45.4634 18.3879 45.2668 17.9151C45.0701 17.4423 45.0178 16.9217 45.1163 16.419C45.2149 15.9164 45.4599 15.4544 45.8205 15.0913C46.1811 14.7282 46.641 14.4804 47.1421 14.3792C47.6433 14.278 48.163 14.3279 48.6358 14.5226C49.1086 14.7174 49.5132 15.0482 49.7984 15.4733C50.0836 15.8984 50.2366 16.3987 50.2381 16.9109C50.2391 17.2513 50.1731 17.5886 50.044 17.9034C49.9148 18.2182 49.725 18.5045 49.4854 18.7458C49.2458 18.987 48.961 19.1786 48.6475 19.3096C48.3339 19.4405 47.9977 19.5083 47.658 19.5089Z" fill="#0F0F11"/>
<path d="M22.5729 10.9599L13.2411 15.7111V6.15819C13.2411 5.09675 12.4088 4.23749 11.3999 4.23749H1.84114C0.832296 4.23749 0 5.09675 0 6.15819V21.0689C0 22.4841 1.41238 23.4192 2.64822 22.7874L11.98 18.0362V27.5892C11.98 28.6506 12.8123 29.5099 13.8212 29.5099H23.38C24.3888 29.5099 25.2211 28.6506 25.2211 27.5892V12.6785C25.2211 11.2632 23.8087 10.3534 22.5729 10.9599Z" fill="url(#paint0_linear_342_1654)"/>
<defs>
<linearGradient id="paint0_linear_342_1654" x1="-1.52063" y1="8.02559" x2="26.7739" y2="25.6701" gradientUnits="userSpaceOnUse">
<stop stop-color="#5F49FD"/>
<stop offset="0.15" stop-color="#A91DFD"/>
<stop offset="0.1565" stop-color="#AB24FD"/>
<stop offset="0.2231" stop-color="#BB6AFD"/>
<stop offset="0.2831" stop-color="#C8A1FD"/>
<stop offset="0.3344" stop-color="#D1C9FD"/>
<stop offset="0.3751" stop-color="#D7E1FD"/>
<stop offset="0.4" stop-color="#D9EAFD"/>
<stop offset="0.4206" stop-color="#DDE9F6"/>
<stop offset="0.4515" stop-color="#E7E7E1"/>
<stop offset="0.4886" stop-color="#F7E4C0"/>
<stop offset="0.5" stop-color="#FDE3B4"/>
<stop offset="0.5332" stop-color="#FDDFB1"/>
<stop offset="0.5677" stop-color="#FCD2A9"/>
<stop offset="0.6026" stop-color="#FBBE9B"/>
<stop offset="0.6378" stop-color="#F9A188"/>
<stop offset="0.65" stop-color="#F89580"/>
<stop offset="1" stop-color="#F24C4E"/>
</linearGradient>
</defs>
</svg>
