<svg width="35" height="34" viewBox="0 0 35 34" fill="none" xmlns="http://www.w3.org/2000/svg">
<circle r="2.07547" transform="matrix(1 0 0 -1 2.63614 31.0461)" fill="#DACEC3" fill-opacity="0.4"/>
<circle r="2.07547" transform="matrix(1 0 0 -1 2.63614 14.0446)" fill="#DACEC3" fill-opacity="0.4"/>
<circle r="2.07547" transform="matrix(1 0 0 -1 2.63614 25.5114)" fill="#DACEC3" fill-opacity="0.4"/>
<circle r="2.07547" transform="matrix(1 0 0 -1 2.63614 8.50998)" fill="#DACEC3" fill-opacity="0.4"/>
<circle r="2.07547" transform="matrix(1 0 0 -1 2.63614 19.9773)" fill="#DACEC3" fill-opacity="0.4"/>
<circle r="2.07547" transform="matrix(1 0 0 -1 2.63614 2.97531)" fill="#DACEC3" fill-opacity="0.4"/>
<circle r="2.07547" transform="matrix(1 0 0 -1 20.7964 31.0461)" fill="#DACEC3" fill-opacity="0.4"/>
<circle r="2.07547" transform="matrix(1 0 0 -1 20.7964 14.0446)" fill="#DACEC3" fill-opacity="0.4"/>
<circle r="2.07547" transform="matrix(1 0 0 -1 20.7964 25.5114)" fill="#DACEC3" fill-opacity="0.4"/>
<circle r="2.07547" transform="matrix(1 0 0 -1 20.7964 8.50998)" fill="#DACEC3" fill-opacity="0.4"/>
<circle r="2.07547" transform="matrix(1 0 0 -1 20.7964 19.9773)" fill="#DACEC3" fill-opacity="0.4"/>
<circle r="2.07547" transform="matrix(1 0 0 -1 20.7964 2.97531)" fill="#DACEC3" fill-opacity="0.4"/>
<circle r="2.07547" transform="matrix(1 0 0 -1 8.68961 31.0461)" fill="#DACEC3" fill-opacity="0.4"/>
<circle r="2.07547" transform="matrix(1 0 0 -1 8.68961 14.0446)" fill="#DACEC3" fill-opacity="0.4"/>
<circle r="2.07547" transform="matrix(1 0 0 -1 8.68961 25.5114)" fill="#DACEC3" fill-opacity="0.4"/>
<circle r="2.07547" transform="matrix(1 0 0 -1 8.68961 8.50998)" fill="#DACEC3" fill-opacity="0.4"/>
<circle r="2.07547" transform="matrix(1 0 0 -1 8.68961 19.9773)" fill="#DACEC3" fill-opacity="0.4"/>
<circle r="2.07547" transform="matrix(1 0 0 -1 8.68961 2.97531)" fill="#DACEC3" fill-opacity="0.4"/>
<circle r="2.07547" transform="matrix(1 0 0 -1 26.8499 31.0461)" fill="#DACEC3" fill-opacity="0.4"/>
<circle r="2.07547" transform="matrix(1 0 0 -1 26.8499 14.0446)" fill="#DACEC3" fill-opacity="0.4"/>
<circle r="2.07547" transform="matrix(1 0 0 -1 26.8499 25.5114)" fill="#DACEC3" fill-opacity="0.4"/>
<circle r="2.07547" transform="matrix(1 0 0 -1 26.8499 8.50998)" fill="#DACEC3" fill-opacity="0.4"/>
<circle r="2.07547" transform="matrix(1 0 0 -1 26.8499 19.9773)" fill="#DACEC3" fill-opacity="0.4"/>
<circle r="2.07547" transform="matrix(1 0 0 -1 26.8499 2.97531)" fill="#DACEC3" fill-opacity="0.4"/>
<circle r="2.07547" transform="matrix(1 0 0 -1 14.7431 31.0461)" fill="#DACEC3" fill-opacity="0.4"/>
<circle r="2.07547" transform="matrix(1 0 0 -1 14.7431 14.0446)" fill="#DACEC3" fill-opacity="0.4"/>
<circle r="2.07547" transform="matrix(1 0 0 -1 14.7431 25.5114)" fill="#DACEC3" fill-opacity="0.4"/>
<circle r="2.07547" transform="matrix(1 0 0 -1 14.7431 8.50998)" fill="#DACEC3" fill-opacity="0.4"/>
<circle r="2.07547" transform="matrix(1 0 0 -1 14.7431 19.9773)" fill="#DACEC3" fill-opacity="0.4"/>
<circle r="2.07547" transform="matrix(1 0 0 -1 14.7431 2.97531)" fill="#DACEC3" fill-opacity="0.4"/>
<circle r="2.07547" transform="matrix(1 0 0 -1 32.9034 31.0461)" fill="#DACEC3" fill-opacity="0.4"/>
<circle r="2.07547" transform="matrix(1 0 0 -1 32.9034 14.0446)" fill="#DACEC3" fill-opacity="0.4"/>
<circle r="2.07547" transform="matrix(1 0 0 -1 32.9034 25.5114)" fill="#DACEC3" fill-opacity="0.4"/>
<circle r="2.07547" transform="matrix(1 0 0 -1 32.9034 8.50998)" fill="#DACEC3" fill-opacity="0.4"/>
<circle r="2.07547" transform="matrix(1 0 0 -1 32.9034 19.9773)" fill="#DACEC3" fill-opacity="0.4"/>
<circle r="2.07547" transform="matrix(1 0 0 -1 32.9034 2.97531)" fill="#DACEC3" fill-opacity="0.4"/>
</svg>
