<?xml version="1.0" standalone="no"?>
<!DOCTYPE svg PUBLIC "-//W3C//DTD SVG 1.1//EN" "http://www.w3.org/Graphics/SVG/1.1/DTD/svg11.dtd" >
<svg xmlns="http://www.w3.org/2000/svg" xmlns:xlink="http://www.w3.org/1999/xlink" version="1.1">
<metadata>
Created by FontForge 20201107 at Thu Oct 24 06:49:13 2024
 By 
Copyright 1990-1999 as an unpublished work by Bitstream Inc.  All rights reserved.  Confidential.
</metadata>
<defs>
<font id="FuturaBT-BoldItalic" horiz-adv-x="1024" >
  <font-face 
    font-family="Futura"
    font-weight="700"
    font-style="italic"
    font-stretch="normal"
    units-per-em="2048"
    panose-1="0 0 0 0 0 0 0 0 0 0"
    ascent="1638"
    descent="-410"
    x-height="1010"
    cap-height="1464"
    bbox="-342 -498 2404 1972"
    underline-thickness="264"
    underline-position="-360"
    slope="-9"
    unicode-range="U+0020-FB02"
  />
<missing-glyph horiz-adv-x="626" 
 />
    <glyph glyph-name=".notdef" horiz-adv-x="626" 
 />
    <glyph glyph-name=".null" horiz-adv-x="0" 
 />
    <glyph glyph-name="nonmarkingreturn" horiz-adv-x="682" 
 />
    <glyph glyph-name="space" unicode=" " horiz-adv-x="626" 
 />
    <glyph glyph-name="exclam" unicode="!" horiz-adv-x="735" 
d="M301 1497h373l-160 -1012h-373zM80 166q0 82 59.5 141.5t143.5 59.5q85 0 143.5 -57.5t58.5 -143.5q0 -87 -59 -145t-143 -58t-143.5 60.5t-59.5 142.5z" />
    <glyph glyph-name="quotedbl" unicode="&#x22;" horiz-adv-x="712" 
d="M76 1438h219v-561h-219v561zM416 1438h223v-561h-223v561z" />
    <glyph glyph-name="numbersign" unicode="#" horiz-adv-x="1574" 
d="M684 1466h250l-139 -395h235l141 395h250l-139 -395h270l-86 -229h-268l-80 -230h277l-84 -231h-275l-141 -393h-250l139 393h-235l-141 -393h-250l139 393h-274l86 231h270l82 230h-283l86 229h279zM707 842l-82 -232h245l82 232h-245z" />
    <glyph glyph-name="dollar" unicode="$" horiz-adv-x="1251" 
d="M178 481q184 -202 400 -202q95 0 147.5 38.5t52.5 104.5q0 62 -46.5 97.5t-164.5 82.5q-190 76 -279 163.5t-89 213.5q0 200 134.5 330.5t362.5 142.5l23 133h125l-23 -137q181 -14 355 -156l-177 -256q-152 140 -309 140q-85 0 -132.5 -33t-47.5 -88q0 -20 10 -37.5
t25.5 -30.5t44.5 -28.5t55.5 -27t71 -31t78.5 -36.5q116 -57 180.5 -106t100.5 -120t36 -171q0 -189 -144.5 -322.5t-385.5 -150.5l-41 -238h-125l41 238q-263 18 -457 233z" />
    <glyph glyph-name="percent" unicode="%" horiz-adv-x="1681" 
d="M295 -39l905 1518h189l-910 -1518h-184zM764 1167q0 -192 -110 -318t-277 -126q-146 0 -230 82t-84 227q0 202 110.5 325.5t283.5 123.5q140 0 223.5 -85t83.5 -229zM383 887q58 0 100.5 95.5t42.5 231.5q0 62 -15.5 89.5t-53.5 27.5q-59 0 -102.5 -95.5t-43.5 -234.5
q0 -60 17 -87t55 -27zM1614 406q0 -194 -112 -320.5t-281 -126.5q-137 0 -221.5 83.5t-84.5 219.5q0 202 110 328.5t284 126.5q140 0 222.5 -83.5t82.5 -227.5zM1227 125q58 0 100.5 96t42.5 232q0 62 -16 90t-54 28q-59 0 -102 -96t-43 -235q0 -60 17 -87.5t55 -27.5z" />
    <glyph glyph-name="ampersand" unicode="&#x26;" horiz-adv-x="1574" 
d="M1098 0l-99 115q-226 -154 -462 -154q-219 0 -351.5 121.5t-132.5 316.5q0 147 94.5 247t305.5 194q-82 131 -82 266q0 158 121 262.5t309 104.5q189 0 302.5 -99.5t113.5 -257.5q0 -127 -78 -214t-256 -177l180 -215l86 63q39 30 139 152l211 -223q-118 -131 -248 -217
l240 -285h-393zM815 336l-233 276q-87 -34 -128.5 -81t-41.5 -113q0 -72 47.5 -117t126.5 -45q96 0 229 80zM735 920l92 55q101 58 101 151q0 45 -34 77t-87 32q-62 0 -102.5 -38.5t-40.5 -96.5q0 -50 20 -86z" />
    <glyph glyph-name="quotesingle" unicode="'" horiz-adv-x="370" 
d="M76 1438h219v-561h-219v561z" />
    <glyph glyph-name="parenleft" unicode="(" horiz-adv-x="735" 
d="M524 -324l-233 -114q-217 382 -217 774q0 351 131.5 648.5t386.5 528.5l194 -180q-209 -189 -317.5 -444.5t-108.5 -560.5q0 -352 164 -652z" />
    <glyph glyph-name="parenright" unicode=")" horiz-adv-x="735" 
d="M162 1399l233 114q215 -379 215 -774q0 -352 -130.5 -649.5t-385.5 -527.5l-196 180q210 189 318 448t108 574q0 336 -162 635z" />
    <glyph glyph-name="asterisk" unicode="*" horiz-adv-x="948" 
d="M614 1200l230 119l67 -195l-254 -49l217 -141l-133 -154l-172 197l-14 -260l-199 39l82 245l-229 -118l-68 192l256 51l-219 142l135 153l168 -194l15 258l200 -39z" />
    <glyph glyph-name="plus" unicode="+" horiz-adv-x="1705" 
d="M735 1221h238v-494h479v-231h-479v-496h-238v496h-481v231h481v494z" />
    <glyph glyph-name="comma" unicode="," horiz-adv-x="626" 
d="M-242 -291l363 613h426l-481 -613h-308z" />
    <glyph glyph-name="hyphen" unicode="-" horiz-adv-x="933" 
d="M68 348l49 309h678l-50 -309h-677z" />
    <glyph glyph-name="period" unicode="." horiz-adv-x="626" 
d="M37 166q0 82 58.5 141.5t142.5 59.5q85 0 143.5 -57.5t58.5 -143.5q0 -87 -58 -145t-142 -58t-143.5 60.5t-59.5 142.5z" />
    <glyph glyph-name="slash" unicode="/" horiz-adv-x="995" 
d="M0 -190l782 1687h213l-782 -1687h-213z" />
    <glyph glyph-name="zero" unicode="0" horiz-adv-x="1251" 
d="M524 -39q-214 0 -336 150.5t-122 420.5q0 190 49.5 367.5t134.5 306.5q87 133 209.5 203t265.5 70q213 0 335 -152t122 -426q0 -190 -48 -362t-133 -301q-185 -277 -477 -277zM545 270q104 0 172 185q46 126 73 273t27 267q0 174 -117 174q-53 0 -94.5 -45.5
t-77.5 -140.5q-43 -117 -69.5 -267t-26.5 -276q0 -83 29.5 -126.5t83.5 -43.5z" />
    <glyph glyph-name="one" unicode="1" horiz-adv-x="1251" 
d="M356 0l183 1141h-220l89 309h550l-229 -1450h-373z" />
    <glyph glyph-name="two" unicode="2" horiz-adv-x="1251" 
d="M664 309q115 8 149 8h311l-51 -317h-1069l610 698q99 114 145 189.5t46 140.5q0 68 -43 109t-113 41q-88 0 -138.5 -61t-51.5 -171h-346q19 253 165 393t390 140q228 0 365.5 -123.5t137.5 -317.5q0 -145 -76 -272t-239 -279z" />
    <glyph glyph-name="three" unicode="3" horiz-adv-x="1251" 
d="M61 473h342q6 -105 57 -162t136 -57q78 0 127 49t49 125q0 84 -56.5 132t-158.5 48h-16l41 258q20 -4 59 -4q93 0 145 47t52 131q0 69 -46.5 112.5t-119.5 43.5q-65 0 -108 -37.5t-58 -109.5h-326q25 198 169 314t366 116q208 0 333.5 -106.5t125.5 -276.5
q0 -130 -80.5 -224t-229.5 -133q123 -29 188.5 -111.5t65.5 -205.5q0 -203 -143 -331t-379 -128q-249 0 -391 136t-144 374z" />
    <glyph glyph-name="four" unicode="4" horiz-adv-x="1251" 
d="M573 0l52 332h-627l45 280l664 838h426l-134 -838h191l-43 -280h-193l-51 -332h-330zM670 612l84 451q6 35 37 158q-49 -87 -111 -164l-350 -445h340z" />
    <glyph glyph-name="five" unicode="5" horiz-adv-x="1251" 
d="M115 434q210 -170 389 -170q121 0 188.5 68.5t67.5 187.5q0 111 -80.5 175.5t-224.5 64.5q-134 0 -271 -55l195 745h786l-59 -303h-508l-53 -207q85 18 147 18q192 0 309 -120t117 -314q0 -250 -160.5 -406.5t-433.5 -156.5q-299 0 -532 164z" />
    <glyph glyph-name="six" unicode="6" horiz-adv-x="1251" 
d="M387 485q0 -90 64.5 -155.5t156.5 -65.5q90 0 154.5 63.5t64.5 157.5q0 93 -63.5 156.5t-155.5 63.5t-156.5 -65.5t-64.5 -154.5zM651 952q49 9 94 9q186 0 299 -121.5t113 -321.5q0 -243 -156 -398t-399 -155q-250 0 -396.5 140.5t-146.5 377.5q0 57 11.5 114t29.5 107
t52 109.5t65.5 106.5t85 114t95.5 116.5t110 127.5l156 178h436z" />
    <glyph glyph-name="seven" unicode="7" horiz-adv-x="1251" 
d="M72 0l710 1116h-618l53 334h1143l-10 -43l-865 -1407h-413z" />
    <glyph glyph-name="eight" unicode="8" horiz-adv-x="1251" 
d="M393 793q-180 100 -180 288q0 175 130.5 286.5t342.5 111.5q211 0 341 -110t130 -277q0 -233 -256 -322q110 -37 169.5 -125.5t59.5 -216.5q0 -205 -157 -336t-414 -131q-226 0 -369 121t-143 311q0 158 91 263.5t255 136.5zM680 1235q-68 0 -115 -51.5t-47 -126.5
q0 -70 45 -114t117 -44q70 0 117 46.5t47 121.5q0 73 -48 120.5t-116 47.5zM399 446q0 -84 49.5 -137t126.5 -53q82 0 137.5 54.5t55.5 138.5q0 83 -51 135.5t-131 52.5q-77 0 -132 -57.5t-55 -133.5z" />
    <glyph glyph-name="nine" unicode="9" horiz-adv-x="1251" 
d="M877 961q0 90 -64.5 155.5t-155.5 65.5q-90 0 -154.5 -63.5t-64.5 -157.5q0 -93 63 -156.5t156 -63.5q92 0 156 65.5t64 154.5zM614 494q-50 -9 -94 -9q-186 0 -298.5 121.5t-112.5 321.5q0 243 156 398t399 155q249 0 394.5 -140.5t145.5 -377.5q0 -175 -108.5 -362
t-337.5 -433l-156 -168h-414z" />
    <glyph glyph-name="colon" unicode=":" horiz-adv-x="735" 
d="M172 780q0 82 58.5 141.5t142.5 59.5q85 0 143.5 -57.5t58.5 -143.5q0 -87 -59 -144.5t-143 -57.5t-142.5 59.5t-58.5 142.5zM66 166q0 83 58 142t142 59q85 0 144 -57.5t59 -143.5q0 -87 -58.5 -145t-142.5 -58t-143 60t-59 143z" />
    <glyph glyph-name="semicolon" unicode=";" horiz-adv-x="735" 
d="M176 780q0 82 58.5 141.5t142.5 59.5q85 0 144 -57.5t59 -143.5q0 -87 -58.5 -144.5t-142.5 -57.5t-143.5 60t-59.5 142zM-229 -291l362 613h426l-481 -613h-307z" />
    <glyph glyph-name="less" unicode="&#x3c;" horiz-adv-x="1705" 
d="M1442 1214v-253l-854 -351l854 -348v-254l-1178 486v233z" />
    <glyph glyph-name="equal" unicode="=" horiz-adv-x="1705" 
d="M254 950h1198v-231h-1198v231zM254 502h1198v-230h-1198v230z" />
    <glyph glyph-name="greater" unicode="&#x3e;" horiz-adv-x="1705" 
d="M264 1214l1178 -487v-233l-1178 -486v254l854 348l-854 351v253z" />
    <glyph glyph-name="question" unicode="?" horiz-adv-x="1155" 
d="M319 471l66 397q27 -2 74 -2q146 0 220.5 49.5t74.5 143.5q0 56 -43.5 95.5t-108.5 39.5q-62 0 -105 -34t-55 -95h-336q25 201 162.5 317.5t352.5 116.5q212 0 344.5 -121t132.5 -307q0 -174 -109 -289.5t-278 -115.5h-27l-31 -195h-334zM244 160q0 79 58 138.5t140 59.5
q86 0 141.5 -56.5t55.5 -141.5q0 -86 -55.5 -142.5t-141.5 -56.5q-89 0 -143.5 55.5t-54.5 143.5z" />
    <glyph glyph-name="at" unicode="@" horiz-adv-x="2048" 
d="M1198 696q-9 76 -50.5 116t-109.5 40q-102 0 -181 -121.5t-79 -286.5q0 -84 35 -129t98 -45q83 0 147 58.5t89 158.5zM1161 262q-57 -83 -127.5 -120.5t-167.5 -37.5q-163 0 -247 87.5t-84 257.5q0 161 66 291.5t178 203t247 72.5q152 0 229 -123l52 92h206l-153 -610
q-4 -24 -4 -33q0 -59 63 -59q89 0 168.5 65.5t127.5 176.5t48 237q0 237 -178.5 389t-468.5 152q-296 0 -504 -146q-155 -110 -239 -274.5t-84 -356.5q0 -302 203 -481.5t544 -179.5q336 0 596 186l97 -135q-309 -233 -693 -233q-389 0 -643 194q-311 241 -311 643
q0 342 209 598q148 182 359 277.5t468 95.5q173 0 323 -47t257 -131q270 -212 270 -549q0 -167 -65.5 -307t-190.5 -240q-142 -115 -330 -115q-212 0 -221 160z" />
    <glyph glyph-name="A" unicode="A" horiz-adv-x="1456" 
d="M596 602h309l-67 342q-19 103 -21 166q-46 -129 -65 -172zM-117 0l733 1464h490l311 -1464h-397l-59 276h-512l-140 -276h-426z" />
    <glyph glyph-name="B" unicode="B" horiz-adv-x="1280" 
d="M561 897h33q130 0 189 34t59 130q0 65 -44.5 94t-138.5 29h-55zM465 287h47q64 0 106 3.5t81 15t61 33t34.5 56.5t12.5 86q0 83 -51.5 115.5t-167.5 32.5h-70zM903 762q139 -26 213 -111.5t74 -220.5q0 -113 -49.5 -207.5t-136.5 -148.5q-76 -48 -183 -61t-299 -13h-483
l233 1464h332q162 0 253.5 -7t156.5 -34q92 -37 145 -119.5t53 -187.5q0 -145 -82 -239.5t-227 -114.5z" />
    <glyph glyph-name="C" unicode="C" horiz-adv-x="1337" 
d="M1360 1395l-66 -404q-174 148 -389 148q-182 0 -300 -127t-118 -324q0 -178 98.5 -275.5t280.5 -97.5q153 0 334 76l-61 -379q-148 -49 -361 -49q-208 0 -365 88.5t-241 249t-84 371.5q0 315 191 551q109 134 273.5 205t369.5 71q232 0 438 -104z" />
    <glyph glyph-name="D" unicode="D" horiz-adv-x="1546" 
d="M483 326q66 -4 97 -4q236 0 357.5 118t121.5 346q0 188 -90.5 271.5t-286.5 83.5h-74zM39 0l229 1464h252q243 0 376 -12t222 -57q162 -82 248 -240t86 -377q0 -420 -309 -637q-48 -34 -100.5 -58t-115 -39.5t-117 -24.5t-135.5 -13t-139.5 -5t-158.5 -1h-338z" />
    <glyph glyph-name="E" unicode="E" horiz-adv-x="1116" 
d="M483 326h453l-51 -326h-844l231 1464h844l-53 -338h-453l-37 -239h420l-49 -318h-422z" />
    <glyph glyph-name="F" unicode="F" horiz-adv-x="1107" 
d="M41 0l231 1464h846l-53 -336h-455l-39 -241h426l-51 -316h-424l-90 -571h-391z" />
    <glyph glyph-name="G" unicode="G" horiz-adv-x="1669" 
d="M883 797h735q-9 -394 -215.5 -615t-558.5 -221q-348 0 -552 189.5t-204 506.5q0 174 63.5 332t180.5 277q111 111 264.5 171t333.5 60q210 0 367 -84t272 -258l-312 -213q-111 197 -327 197q-184 0 -304 -133t-120 -336q0 -169 95.5 -270t250.5 -101q119 0 205 53
q76 47 112 146h-333z" />
    <glyph glyph-name="H" unicode="H" horiz-adv-x="1611" 
d="M41 0l231 1464h394l-91 -565h512l89 565h395l-232 -1464h-395l94 598h-510l-94 -598h-393z" />
    <glyph glyph-name="I" unicode="I" horiz-adv-x="724" 
d="M47 0l232 1464h399l-232 -1464h-399z" />
    <glyph glyph-name="J" unicode="J" horiz-adv-x="972" 
d="M88 389q46 -50 82.5 -74t75.5 -24q29 0 51 9t38.5 30.5t28 47t22 70t18 88.5t18.5 112v1l129 815h393l-151 -956q-28 -177 -46 -238q-35 -112 -106 -186q-132 -135 -346 -135q-259 0 -399 168z" />
    <glyph glyph-name="K" unicode="K" horiz-adv-x="1449" 
d="M41 0l231 1464h392l-99 -612l557 612h506l-721 -723l498 -741h-463l-410 645l-102 -645h-389z" />
    <glyph glyph-name="L" unicode="L" horiz-adv-x="1048" 
d="M41 0l231 1464h394l-177 -1114h484l-55 -350h-877z" />
    <glyph glyph-name="M" unicode="M" horiz-adv-x="1906" 
d="M-45 0l448 1464h435l98 -567q20 -121 31 -229q20 82 82 221l262 575h432l35 -1464h-361l-4 698q0 117 8 232q-22 -74 -90 -217l-334 -713h-237l-137 711q-23 121 -35 219q-20 -122 -49 -232l-203 -698h-381z" />
    <glyph glyph-name="N" unicode="N" horiz-adv-x="1673" 
d="M41 0l231 1464h447l309 -723q2 -5 14.5 -34t18.5 -44.5t16.5 -43.5t19 -57t15.5 -60v37q0 76 18 206l113 719h391l-231 -1464h-430l-328 745q-59 128 -86 240v-41q0 -77 -16 -203l-111 -741h-391z" />
    <glyph glyph-name="O" unicode="O" horiz-adv-x="1763" 
d="M825 -39q-315 0 -514 172q-105 91 -164 226t-59 288q0 329 201 565q117 137 285.5 211t365.5 74q219 0 387 -87t259 -242.5t91 -354.5q0 -331 -202 -565q-121 -140 -286 -213.5t-364 -73.5zM915 1139q-181 0 -301 -129.5t-120 -319.5q0 -169 96.5 -270t257.5 -101
q177 0 299.5 133.5t122.5 325.5q0 159 -101 260t-254 101z" />
    <glyph glyph-name="P" unicode="P" horiz-adv-x="1318" 
d="M41 0l233 1464h402q143 0 233 -11t164 -48q223 -115 223 -393q0 -139 -60.5 -255t-160.5 -179q-71 -43 -161 -55.5t-238 -12.5h-164l-82 -510h-389zM561 821h37q68 0 114.5 3.5t89 14.5t67 30.5t39 51t14.5 76.5q0 82 -58 119t-180 37h-70z" />
    <glyph glyph-name="Q" unicode="Q" horiz-adv-x="1763" 
d="M1638 -152h-405l-125 164q-142 -47 -313 -47q-319 0 -516 191t-197 495q0 325 201 561q118 137 286 212t365 75q219 0 387 -87t259 -242t91 -353q0 -394 -276 -643zM666 602h417l93 -131q102 126 102 305q0 161 -101 263t-257 102q-185 0 -309 -132t-124 -325
q0 -171 95.5 -274t251.5 -103q9 0 30 2.5t29 3.5z" />
    <glyph glyph-name="R" unicode="R" horiz-adv-x="1355" 
d="M555 795h123q117 0 178.5 53t61.5 153q0 95 -59.5 137t-184.5 42h-58zM430 0h-389l231 1464h390q151 0 243.5 -10t167.5 -45q225 -107 225 -373q0 -181 -107.5 -303.5t-299.5 -154.5l356 -578h-446l-283 559z" />
    <glyph glyph-name="S" unicode="S" horiz-adv-x="1175" 
d="M172 504q90 -96 173 -142.5t175 -46.5q75 0 118.5 36.5t43.5 94.5q0 29 -10.5 51.5t-37.5 43.5t-53 36t-77 42q-18 9 -27 14q-78 40 -129.5 75.5t-92.5 80t-60 98t-19 121.5q0 216 146 354.5t378 138.5q247 0 447 -170l-168 -289q-155 134 -264 134q-61 0 -100.5 -34.5
t-39.5 -84.5q0 -19 8.5 -36.5t21.5 -30t37.5 -27.5t45.5 -26t57 -29.5t62 -33.5q147 -81 210.5 -168t63.5 -225q0 -234 -161.5 -376t-444.5 -142q-299 0 -506 248z" />
    <glyph glyph-name="T" unicode="T" horiz-adv-x="1118" 
d="M244 0l178 1124h-328l56 340h1034l-56 -340h-313l-178 -1124h-393z" />
    <glyph glyph-name="U" unicode="U" horiz-adv-x="1529" 
d="M254 1464h393l-117 -735q-24 -147 -24 -215q0 -94 53 -146.5t148 -52.5q48 0 85.5 12t65.5 36t49.5 60t38 85t29.5 109.5t25.5 134t26.5 159.5l3 21l84 532h393l-131 -831q-16 -100 -24.5 -143.5t-30.5 -115t-53 -124.5q-82 -142 -231.5 -217.5t-352.5 -75.5
q-262 0 -420 126t-158 333q0 119 48 424z" />
    <glyph glyph-name="V" unicode="V" horiz-adv-x="1388" 
d="M410 0l-390 1464h416l180 -837q15 -70 21 -166q40 115 65 170l388 833h436l-776 -1464h-340z" />
    <glyph glyph-name="W" unicode="W" horiz-adv-x="2048" 
d="M324 0l-269 1464h389l113 -790q19 -143 21 -223q40 156 65 231l260 782h361l106 -790q19 -139 21 -223q16 82 71 231l295 782h406l-613 -1464h-401l-100 682q-19 139 -21 223q-37 -144 -65 -231l-222 -674h-417z" />
    <glyph glyph-name="X" unicode="X" horiz-adv-x="1533" 
d="M-106 0l649 791l-391 673h444l154 -288q33 -64 53 -113q27 58 71 115l218 286h479l-565 -696l456 -768h-458l-211 391q-35 69 -54 113q-37 -75 -69 -117l-291 -387h-485z" />
    <glyph glyph-name="Y" unicode="Y" horiz-adv-x="1193" 
d="M268 0l103 653l-412 811h436l160 -374q28 -65 53 -144q51 121 70 148l260 370h451l-625 -815l-102 -649h-394z" />
    <glyph glyph-name="Z" unicode="Z" horiz-adv-x="1331" 
d="M-113 0l842 1143h-563l45 321h1208l-823 -1116h647l-53 -348h-1303z" />
    <glyph glyph-name="bracketleft" unicode="[" horiz-adv-x="735" 
d="M281 1497h536l-37 -242h-237l-230 -1435h238l-37 -242h-539z" />
    <glyph glyph-name="backslash" unicode="\" horiz-adv-x="995" 
d="M836 -190h-213l-467 1687h213z" />
    <glyph glyph-name="bracketright" unicode="]" horiz-adv-x="735" 
d="M393 -422h-536l37 242h237l227 1435h-237l39 242h538z" />
    <glyph glyph-name="asciicircum" unicode="^" horiz-adv-x="2048" 
d="M879 1462h288l465 -563h-264l-344 342l-346 -342h-264z" />
    <glyph glyph-name="underscore" unicode="_" 
d="M0 -244h1024v-239h-1024v239z" />
    <glyph glyph-name="grave" unicode="`" 
d="M328 1505h266l154 -352h-142z" />
    <glyph glyph-name="a" unicode="a" horiz-adv-x="1366" 
d="M799 135q-147 -172 -355 -172q-173 0 -285 130t-112 341q0 263 151.5 435.5t376.5 172.5q206 0 338 -178l23 146h338l-160 -1010h-332zM406 469q0 -98 59.5 -156.5t155.5 -58.5q106 0 176.5 82.5t70.5 206.5q0 94 -59 152.5t-154 58.5q-108 0 -178.5 -81t-70.5 -204z" />
    <glyph glyph-name="b" unicode="b" horiz-adv-x="1366" 
d="M526 1022q-8 -57 -41 -152q171 168 361 168q173 0 286 -130t113 -339q0 -173 -69 -312.5t-189.5 -217.5t-269.5 -78q-101 0 -184 43.5t-160 134.5l-23 -139h-332l246 1550h346zM887 543q0 98 -59.5 156.5t-155.5 58.5q-106 0 -177 -81.5t-71 -205.5q0 -94 59 -152.5
t154 -58.5q109 0 179.5 80t70.5 203z" />
    <glyph glyph-name="c" unicode="c" 
d="M889 641q-108 117 -230 117q-106 0 -176.5 -81.5t-70.5 -201.5q0 -100 54.5 -158.5t149.5 -58.5q117 0 226 84l-54 -332q-140 -49 -268 -49q-214 0 -346.5 139t-132.5 361q0 258 163 422t431 164q171 0 303 -97z" />
    <glyph glyph-name="d" unicode="d" horiz-adv-x="1366" 
d="M1360 1550l-244 -1550h-336l21 131q-150 -172 -357 -172q-172 0 -284.5 130.5t-112.5 340.5q0 173 69 312t189.5 216.5t269.5 77.5q101 0 184 -42.5t156 -133.5v29q0 54 11 129l84 532h350zM414 475q0 -98 59.5 -156.5t155.5 -58.5q106 0 177 82.5t71 206.5
q0 94 -59 152.5t-154 58.5q-109 0 -179.5 -81t-70.5 -204z" />
    <glyph glyph-name="e" unicode="e" horiz-adv-x="1222" 
d="M367 420v-23q0 -96 49 -146t143 -50q67 0 126 27.5t124 88.5l192 -194q-173 -164 -450 -164q-248 0 -384 132t-136 368q0 259 162.5 421t420.5 162q234 0 376.5 -143.5t142.5 -378.5q0 -8 -9 -100h-757zM799 625q-4 83 -54.5 130.5t-132.5 47.5q-73 0 -132 -46.5
t-89 -131.5h408z" />
    <glyph glyph-name="f" unicode="f" horiz-adv-x="757" 
d="M57 0l119 752h-168l41 258h168l16 102q1 9 6 41.5t7 42t6.5 37t7.5 39t9 34t11.5 35t13 30t16.5 32t20 27.5q55 68 141.5 106.5t190.5 38.5q97 0 210 -43l-45 -289q-62 29 -110 29q-62 0 -90.5 -39.5t-42.5 -132.5l-15 -90h222l-41 -258h-220l-118 -752h-355z" />
    <glyph glyph-name="g" unicode="g" horiz-adv-x="1351" 
d="M1149 238q-3 -18 -13 -86.5t-13.5 -86.5t-13 -70.5t-17 -73.5t-20 -57.5t-28 -61.5t-34.5 -48q-80 -96 -208.5 -148t-291.5 -52q-233 0 -366.5 94.5t-159.5 277.5h372q6 -62 48.5 -94.5t115.5 -32.5q112 0 175.5 65t82.5 199l13 87q-135 -166 -342 -166
q-176 0 -289 127.5t-113 334.5q0 257 151 426.5t377 169.5q202 0 338 -174l23 142h334zM406 469q0 -97 57 -157t151 -60q108 0 181 83t73 208q0 95 -59 153t-154 58q-108 0 -178.5 -81.5t-70.5 -203.5z" />
    <glyph glyph-name="h" unicode="h" horiz-adv-x="1290" 
d="M10 0l248 1550h350l-90 -544q-11 -71 -31 -154q81 98 162.5 144t181.5 46q157 0 243.5 -84.5t86.5 -236.5q0 -51 -20 -191l-84 -530h-357l84 535q9 56 9 83q0 134 -138 134q-95 0 -147 -68.5t-74 -212.5l-72 -471h-352z" />
    <glyph glyph-name="i" unicode="i" horiz-adv-x="638" 
d="M27 0l159 1010h359l-160 -1010h-358zM213 1311q0 78 54.5 134t135.5 56q82 0 137.5 -53.5t55.5 -136.5q0 -82 -57 -137.5t-136 -55.5t-134.5 57t-55.5 136z" />
    <glyph glyph-name="j" unicode="j" horiz-adv-x="638" 
d="M311 -446h-358l233 1456h359zM213 1311q0 78 54.5 134t135.5 56q82 0 137.5 -53.5t55.5 -136.5q0 -82 -57 -137.5t-136 -55.5t-134.5 57t-55.5 136z" />
    <glyph glyph-name="k" unicode="k" horiz-adv-x="1232" 
d="M471 582l383 428h449l-494 -492l330 -518h-426l-256 477l-76 -477h-354l243 1550h357z" />
    <glyph glyph-name="l" unicode="l" horiz-adv-x="638" 
d="M272 1550h359l-248 -1550h-358z" />
    <glyph glyph-name="m" unicode="m" horiz-adv-x="1869" 
d="M10 0l160 1010h313l-22 -168q142 200 332 200q113 0 184.5 -46t118.5 -150q76 101 155 148.5t176 47.5q153 0 233.5 -84.5t80.5 -246.5q0 -79 -17 -181l-84 -530h-333l84 535q4 23 4 63q0 154 -131 154q-90 0 -136 -67.5t-69 -215.5l-70 -469h-334l84 535q9 70 9 79
q0 66 -33.5 102t-96.5 36q-92 0 -135.5 -67t-66.5 -216l-74 -469h-332z" />
    <glyph glyph-name="n" unicode="n" horiz-adv-x="1290" 
d="M10 0l160 1010h342l-25 -158q81 98 162.5 144t181.5 46q157 0 243.5 -84.5t86.5 -236.5q0 -51 -20 -191l-84 -530h-357l84 535q9 56 9 83q0 134 -138 134q-95 0 -147 -68.5t-74 -212.5l-72 -471h-352z" />
    <glyph glyph-name="o" unicode="o" horiz-adv-x="1255" 
d="M27 457q0 258 168.5 422.5t429.5 164.5q244 0 388 -137.5t144 -365.5q0 -123 -44 -230.5t-122.5 -185t-193 -122t-248.5 -44.5q-237 0 -379.5 136.5t-142.5 361.5zM618 754q-105 0 -177 -87t-72 -214q0 -93 53 -148t141 -55q112 0 183 85t71 216q0 95 -54 149t-145 54z
" />
    <glyph glyph-name="p" unicode="p" horiz-adv-x="1366" 
d="M-43 -446l231 1456h336l-22 -140q150 172 354 172q172 0 284.5 -129.5t112.5 -339.5q0 -173 -69 -312.5t-189.5 -217.5t-269.5 -78q-199 0 -340 178q0 -97 -10 -159l-66 -430h-352zM887 528q0 98 -59.5 156.5t-155.5 58.5q-106 0 -177 -82t-71 -206q0 -94 59 -151.5
t154 -57.5q109 0 179.5 79.5t70.5 202.5z" />
    <glyph glyph-name="q" unicode="q" horiz-adv-x="1366" 
d="M756 -20q9 64 43 153q-144 -172 -355 -172q-172 0 -284.5 129.5t-112.5 339.5q0 173 69 312.5t189.5 217.5t269.5 78q204 0 340 -178l21 150h338l-232 -1456h-350zM406 467q0 -98 59.5 -156.5t155.5 -58.5q106 0 176.5 81.5t70.5 205.5q0 94 -59 152.5t-154 58.5
q-109 0 -179 -80t-70 -203z" />
    <glyph glyph-name="r" unicode="r" horiz-adv-x="854" 
d="M10 0l160 1010h342l-25 -172q46 95 125 145.5t185 50.5q19 0 69 -8l-71 -317q-66 16 -117 16q-104 0 -163 -65t-81 -199l-72 -461h-352z" />
    <glyph glyph-name="s" unicode="s" horiz-adv-x="940" 
d="M856 936l-104 -227q-133 94 -242 94q-50 0 -80.5 -22t-30.5 -54q0 -15 6 -26.5t15.5 -19.5t27 -17t34 -15t44 -16.5t49.5 -20.5q137 -60 199 -126.5t62 -172.5q0 -158 -122 -255t-329 -97q-229 0 -426 123l119 242q95 -58 165.5 -86.5t135.5 -28.5q54 0 85.5 24t31.5 60
q0 20 -8 35.5t-32 30.5t-41 23t-63.5 26.5t-70.5 29.5q-113 51 -164 111.5t-51 153.5q0 141 119 239t313 98q197 0 358 -106z" />
    <glyph glyph-name="t" unicode="t" horiz-adv-x="704" 
d="M57 0l119 752h-168l41 258h168l45 293h356l-47 -293h181l-41 -258h-181l-118 -752h-355z" />
    <glyph glyph-name="u" unicode="u" horiz-adv-x="1251" 
d="M152 1010h354l-66 -418q-26 -175 -26 -211q0 -72 34.5 -110t100.5 -38q99 0 142 76q32 57 58 222q3 16 8 50q3 19 5 29l63 400h355l-72 -457q-31 -191 -53 -260q-38 -121 -115 -195q-143 -137 -405 -137q-225 0 -352.5 102t-127.5 273q0 68 35 287z" />
    <glyph glyph-name="v" unicode="v" horiz-adv-x="1196" 
d="M313 0l-346 1010h367l141 -500q22 -74 27 -166q53 123 80 172l276 494h389l-624 -1010h-310z" />
    <glyph glyph-name="w" unicode="w" horiz-adv-x="1751" 
d="M274 0l-299 1010h355l102 -459q18 -80 29 -174q19 61 74 178l221 455h243l109 -459q25 -108 31 -174q20 70 73 178l226 455h366l-547 -1010h-274l-113 467q-16 73 -28 166q-19 -60 -74 -172l-223 -461h-271z" />
    <glyph glyph-name="x" unicode="x" horiz-adv-x="1128" 
d="M-145 0l481 528l-293 482h383l86 -164q26 -51 45 -111q29 59 72 115l121 160h405l-399 -486l293 -524h-400l-94 186q-35 68 -47 113q-41 -77 -72 -117l-139 -182h-442z" />
    <glyph glyph-name="y" unicode="y" horiz-adv-x="1075" 
d="M262 51l-287 959h369l88 -437q2 -8 7.5 -33t8.5 -42t6.5 -45.5t4.5 -55.5q24 85 71 181l209 432h383l-784 -1456h-373z" />
    <glyph glyph-name="z" unicode="z" horiz-adv-x="1097" 
d="M-106 0l608 758h-416l39 252h975l-584 -723h463l-45 -287h-1040z" />
    <glyph glyph-name="braceleft" unicode="{" 
d="M893 1477v-242q-7 0 -21 1t-20 1q-102 0 -134 -37.5t-32 -144.5v-240q0 -135 -43.5 -197t-167.5 -88q125 -26 168 -86.5t43 -195.5v-242q0 -106 32 -143t132 -37q7 0 21.5 1t21.5 1v-242q-15 0 -42 -1t-40 -1q-206 0 -299 49q-67 35 -86.5 98t-19.5 183v256
q0 132 -49 187t-169 55q-5 0 -17.5 -1t-18.5 -1v241q6 0 18 -1t18 -1q119 0 168.5 56t49.5 188v254q0 120 19.5 184t86.5 99q93 49 301 49q12 0 38.5 -1t41.5 -1z" />
    <glyph glyph-name="bar" unicode="|" 
d="M393 1565h240v-2048h-240v2048z" />
    <glyph glyph-name="braceright" unicode="}" 
d="M133 1477q15 0 41.5 1t38.5 1q206 0 301 -49q67 -35 87 -99t20 -184v-254q0 -133 49 -188.5t168 -55.5q6 0 18 1t18 1v-241q-6 0 -18 1t-18 1q-119 0 -168 -55.5t-49 -186.5v-256q0 -120 -20 -184t-87 -99q-86 -47 -291 -47q-14 0 -44 1t-46 1v242q9 0 23 -1t20 -1
q101 0 132.5 37t31.5 143v242q0 134 43 195.5t168 86.5q-125 25 -168 87.5t-43 197.5v240q0 105 -31 143.5t-129 38.5q-7 0 -23 -1t-24 -1v242z" />
    <glyph glyph-name="asciitilde" unicode="~" horiz-adv-x="1705" 
d="M1530 819v-254q-199 -137 -377 -137q-90 0 -172 29q-5 2 -47 16.5t-50.5 17.5t-45 15t-49 15t-43.5 12t-48 11.5t-43.5 7t-48.5 6t-45 1.5q-88 0 -179.5 -39t-203.5 -119v254q222 144 387 144q119 0 295 -58q12 -4 56.5 -19.5t63 -21t54 -15.5t65.5 -13.5t60 -3.5
q163 0 371 151z" />
    <glyph glyph-name="exclamdown" unicode="&#xa1;" horiz-adv-x="735" 
d="M651 1296q0 -82 -59 -142t-143 -60q-85 0 -143 58t-58 144q0 87 58.5 144t142.5 57t143 -59.5t59 -141.5zM432 -37h-375l160 1012h375z" />
    <glyph glyph-name="cent" unicode="&#xa2;" horiz-adv-x="1251" 
d="M1016 723q-125 119 -250 119q-132 0 -213.5 -89t-81.5 -231q0 -109 67.5 -172t188.5 -63q106 0 219 67l-63 -315q-95 -39 -197 -39h-14l-45 -231h-127l47 235q-195 29 -305.5 163t-110.5 341q0 174 77.5 311t221.5 215t330 78h4l35 178h125l-37 -190q101 -24 186 -82z
" />
    <glyph glyph-name="sterling" unicode="&#xa3;" horiz-adv-x="1251" 
d="M47 199q85 105 211 157q88 101 88 234v26h-233l24 154h168q-74 197 -74 283q0 183 140 304.5t358 121.5t339 -123t128 -355h-332q-9 181 -137 181q-63 0 -102 -35t-39 -92q0 -22 24.5 -115.5t28.5 -169.5h297l-25 -154h-290q-50 -164 -181 -260h23q79 0 181 -33.5
t132 -33.5q70 0 154 90l221 -211q-179 -209 -371 -209q-72 0 -205.5 44t-193.5 44q-85 0 -170 -82z" />
    <glyph glyph-name="currency" unicode="&#xa4;" horiz-adv-x="1251" 
d="M1284 1376l-67 -329q-138 114 -299 114q-123 0 -206 -60t-134 -183h524l-70 -125h-477q-14 -63 -14 -134h422l-68 -122h-358q10 -129 88.5 -198t210.5 -69q120 0 286 88l-69 -350q-136 -47 -271 -47q-282 0 -440.5 150t-169.5 426h-195l52 122h143q2 54 14 134h-168
l52 125h139q69 265 254.5 413t447.5 148q202 0 373 -103z" />
    <glyph glyph-name="yen" unicode="&#xa5;" horiz-adv-x="1357" 
d="M387 0l86 532h-491l28 179h447l-70 141h-354l28 178h236l-219 422h393l166 -389q31 -74 57 -143q40 82 84 147l271 385h421l-323 -422h242l-29 -178h-350l-109 -141h436l-28 -179h-480l-84 -532h-358z" />
    <glyph glyph-name="brokenbar" unicode="&#xa6;" 
d="M393 1432h240v-758h-240v758zM393 408h240v-758h-240v758z" />
    <glyph glyph-name="section" unicode="&#xa7;" horiz-adv-x="1228" 
d="M387 518q0 -80 50.5 -131t131.5 -51q79 0 130 51t51 131q0 77 -53 128.5t-130 51.5q-75 0 -127.5 -53.5t-52.5 -126.5zM-14 0h368q3 -82 45 -128t109 -46q58 0 98.5 38t40.5 91q0 22 -5 40.5t-10 31t-21 24.5t-25 18.5t-35 15.5t-38 12.5t-47 12.5t-50 13
q-209 56 -303.5 142.5t-94.5 242.5q0 129 78 224.5t217 133.5q-161 64 -161 240q0 169 138.5 280t362.5 111q231 0 366.5 -118.5t135.5 -319.5v-4h-375v6q0 79 -36.5 121.5t-102.5 42.5q-64 0 -102.5 -35.5t-38.5 -91.5q0 -19 3 -34t12 -28t17 -22t25.5 -18t29.5 -15t37 -13
t39.5 -11t47 -12t49.5 -13q381 -99 381 -373q0 -136 -79 -235t-224 -140q159 -86 159 -247q0 -158 -144.5 -267.5t-373.5 -109.5q-224 0 -358.5 120t-134.5 320z" />
    <glyph glyph-name="dieresis" unicode="&#xa8;" 
d="M299 1339q0 56 42.5 99t100.5 43q59 0 99.5 -41.5t40.5 -100.5q0 -63 -39 -103t-101 -40q-60 0 -101.5 41t-41.5 102zM662 1339q0 56 42.5 99t100.5 43q60 0 100.5 -41.5t40.5 -100.5q0 -63 -39.5 -103t-101.5 -40q-60 0 -101.5 41t-41.5 102z" />
    <glyph glyph-name="copyright" unicode="&#xa9;" horiz-adv-x="1705" 
d="M852 1485q313 0 532 -219q215 -215 215 -529t-213 -524q-110 -108 -248 -165.5t-286 -57.5t-283.5 57t-242.5 164t-163.5 242t-56.5 284q0 148 57.5 285t164.5 246q214 217 524 217zM854 1350q-254 0 -430 -179q-88 -90 -135 -201.5t-47 -232.5q0 -120 47 -231t135 -199
q180 -180 430 -180q121 0 233.5 46.5t202.5 135.5q174 171 174 428q0 256 -176 432q-181 181 -434 181zM1221 891h-213q-6 67 -47 104t-109 37q-81 0 -128.5 -76.5t-47.5 -216.5t47.5 -212t138.5 -72q66 0 106 40t46 115h215q-6 -143 -107.5 -230t-263.5 -87
q-190 0 -301 117.5t-111 320.5q0 208 111.5 329.5t298.5 121.5q158 0 257.5 -80t107.5 -211z" />
    <glyph glyph-name="ordfeminine" unicode="&#xaa;" 
d="M600 852q-112 -121 -266 -121q-129 0 -214 91.5t-85 238.5q0 185 113.5 305.5t283.5 120.5q155 0 254 -125l16 102h254l-120 -706h-248zM305 1085q0 -68 44.5 -108.5t115.5 -40.5q80 0 133 57.5t53 143.5q0 66 -43.5 107.5t-115.5 41.5q-81 0 -134 -57t-53 -144z" />
    <glyph glyph-name="guillemotleft" unicode="&#xab;" horiz-adv-x="1089" 
d="M780 39l-307 481l377 447l180 -146l-276 -311l213 -338zM336 39l-307 481l374 447l175 -140l-271 -317l223 -330z" />
    <glyph glyph-name="logicalnot" unicode="&#xac;" horiz-adv-x="1705" 
d="M254 866h1198v-501h-229v274h-969v227z" />
    <glyph glyph-name="registered" unicode="&#xae;" horiz-adv-x="1705" 
d="M852 1485q156 0 294 -57.5t245 -167.5q102 -103 155 -238t53 -285q0 -155 -57 -291t-164 -239q-110 -106 -245.5 -161.5t-280.5 -55.5q-151 0 -287 58.5t-243 168.5q-105 108 -160.5 241t-55.5 279q0 150 59 289.5t169 247.5q214 211 518 211zM854 1350q-251 0 -426 -172
q-90 -90 -137 -203.5t-47 -237.5q0 -247 174 -424q88 -91 199.5 -138.5t234.5 -47.5q121 0 232 45t200 131q180 174 180 434q0 253 -172 428q-182 185 -438 185zM537 1163h329q176 0 265.5 -60.5t89.5 -176.5q0 -80 -45.5 -138t-128.5 -83l182 -361h-248l-154 326h-65v-326
h-225v819zM762 1022v-219h80q147 0 147 106q0 59 -38.5 86t-121.5 27h-67z" />
    <glyph glyph-name="macron" unicode="&#xaf;" 
d="M303 1253l27 170h614l-26 -170h-615z" />
    <glyph glyph-name="degree" unicode="&#xb0;" horiz-adv-x="673" 
d="M338 1466q128 0 219.5 -90.5t91.5 -220.5q0 -128 -91.5 -219.5t-221.5 -91.5q-129 0 -219 90.5t-90 220.5q0 131 90.5 221t220.5 90zM338 1321q-68 0 -117 -48t-49 -116q0 -69 48 -117.5t118 -48.5q68 0 116 49t48 117t-47.5 116t-116.5 48z" />
    <glyph glyph-name="plusminus" unicode="&#xb1;" horiz-adv-x="1705" 
d="M735 1241h238v-319h479v-232h-479v-319h-238v319h-481v232h481v319zM254 213h1198v-231h-1198v231z" />
    <glyph glyph-name="twosuperior" unicode="&#xb2;" horiz-adv-x="825" 
d="M438 762q24 1 47.5 2t35.5 1.5t16 0.5h204l-32 -191h-707l404 420q64 65 94 111.5t30 85.5q0 41 -27.5 65.5t-74.5 24.5q-57 0 -90.5 -36.5t-34.5 -102.5h-229q12 152 109 235.5t257 83.5q151 0 242.5 -73.5t91.5 -190.5q0 -87 -50.5 -163t-158.5 -167z" />
    <glyph glyph-name="threesuperior" unicode="&#xb3;" horiz-adv-x="825" 
d="M41 860h225q4 -64 37.5 -98.5t89.5 -34.5q52 0 84.5 29.5t32.5 74.5q0 51 -37 80t-104 29h-13l27 156q14 -2 41 -2q62 0 95.5 27.5t33.5 78.5q0 41 -30.5 66.5t-80.5 25.5q-86 0 -108 -88h-215q17 120 111.5 189t240.5 69q137 0 220 -63.5t83 -165.5q0 -77 -53 -133.5
t-150 -79.5q80 -19 123 -68.5t43 -122.5q0 -123 -94.5 -199.5t-249.5 -76.5q-164 0 -258 82t-94 225z" />
    <glyph glyph-name="acute" unicode="&#xb4;" 
d="M395 1153l219 352h310l-377 -352h-152z" />
    <glyph glyph-name="mu" unicode="&#xb5;" horiz-adv-x="1314" 
d="M193 1090h358l-80 -529q-12 -82 -12 -143q0 -170 143 -170q89 0 139 70t74 219l88 553h357l-175 -1090h-321l18 125q-40 -74 -89.5 -107.5t-119.5 -33.5q-123 0 -184 120l-82 -532h-352z" />
    <glyph glyph-name="paragraph" unicode="&#xb6;" 
d="M997 1479v-123h-106v-1356h-174v1356h-152v-1356h-174v784q-166 6 -264 101.5t-98 244.5q0 156 105 252.5t284 96.5h579z" />
    <glyph glyph-name="periodcentered" unicode="&#xb7;" horiz-adv-x="626" 
d="M106 719q0 82 59.5 142.5t143.5 60.5q85 0 144 -58.5t59 -144.5q0 -87 -59 -144t-144 -57q-84 0 -143.5 59.5t-59.5 141.5z" />
    <glyph glyph-name="cedilla" unicode="&#xb8;" 
d="M94 -438l53 133q129 -53 234 -53q45 0 71.5 20.5t26.5 54.5q0 37 -38 52.5t-122 15.5h-40l75 215h115l-33 -92q234 -3 234 -174q0 -109 -73 -170.5t-208 -61.5q-103 0 -295 60z" />
    <glyph glyph-name="onesuperior" unicode="&#xb9;" horiz-adv-x="825" 
d="M236 575l120 685h-145l57 186h365l-152 -871h-245z" />
    <glyph glyph-name="ordmasculine" unicode="&#xba;" horiz-adv-x="942" 
d="M20 1077q0 181 126 296.5t323 115.5q182 0 290.5 -96.5t108.5 -255.5q0 -177 -126.5 -292.5t-329.5 -115.5q-178 0 -285 95.5t-107 252.5zM465 1286q-78 0 -133.5 -61t-55.5 -150q0 -65 40.5 -104t105.5 -39q84 0 137 59.5t53 151.5q0 67 -39.5 105t-107.5 38z" />
    <glyph glyph-name="guillemotright" unicode="&#xbb;" horiz-adv-x="1089" 
d="M238 967l307 -482l-375 -446l-182 143l278 312l-215 337zM684 967l307 -482l-377 -446l-174 139l271 316l-224 329z" />
    <glyph glyph-name="onequarter" unicode="&#xbc;" horiz-adv-x="1918" 
d="M225 633l115 639h-139l55 172h348l-145 -811h-234zM446 -39l816 1518h208l-808 -1518h-216zM1491 0l33 186h-396l29 156l418 469h268l-84 -469h121l-27 -156h-120l-33 -186h-209zM1552 342l54 254q1 6 22 88q-28 -48 -69 -92l-222 -250h215z" />
    <glyph glyph-name="onehalf" unicode="&#xbd;" horiz-adv-x="1918" 
d="M225 633l115 639h-139l55 172h348l-145 -811h-234zM446 -39l816 1518h208l-808 -1518h-216zM1548 174q23 1 45.5 2t34 1.5t14.5 0.5h197l-33 -178h-673l385 391q62 64 91 106t29 78q0 38 -27 61t-71 23q-56 0 -88 -34t-33 -95h-217q10 140 102.5 218.5t245.5 78.5
q145 0 231.5 -68t86.5 -177q0 -81 -48 -152.5t-151 -157.5z" />
    <glyph glyph-name="threequarters" unicode="&#xbe;" horiz-adv-x="1918" 
d="M39 897h215q4 -58 36 -90.5t85 -32.5q49 0 80.5 28t31.5 70q0 46 -36 73.5t-101 27.5h-10l27 145q12 -2 36 -2q60 0 92.5 26t32.5 72q0 40 -29 64.5t-75 24.5q-86 0 -105 -82h-206q17 110 108 174.5t230 64.5q131 0 209.5 -59t78.5 -154q0 -73 -50 -125t-144 -75
q76 -15 118 -62.5t42 -116.5q0 -114 -90.5 -185t-239.5 -71q-156 0 -245 76t-91 209zM446 -39l816 1518h208l-808 -1518h-216zM1491 0l33 186h-396l29 156l418 469h268l-84 -469h121l-27 -156h-120l-33 -186h-209zM1552 342l54 254q1 6 22 88q-28 -48 -69 -92l-222 -250h215
z" />
    <glyph glyph-name="questiondown" unicode="&#xbf;" horiz-adv-x="1155" 
d="M922 1300q0 -79 -58.5 -138.5t-140.5 -59.5q-86 0 -141.5 56.5t-55.5 141.5q0 86 55.5 142.5t141.5 56.5q89 0 144 -55.5t55 -143.5zM844 989l-64 -395q-25 2 -71 2q-147 0 -222 -50t-75 -145q0 -56 43 -94.5t108 -38.5q62 0 105 34t55 95h336q-25 -202 -162 -319
t-352 -117q-212 0 -344.5 122t-132.5 308q0 174 109 289t278 115h26l31 194h332z" />
    <glyph glyph-name="Agrave" unicode="&#xc0;" horiz-adv-x="1456" 
d="M596 602h309l-67 342q-19 103 -21 166q-46 -129 -65 -172zM-117 0l733 1464h490l311 -1464h-397l-59 276h-512l-140 -276h-426zM606 1960h266l154 -352h-141z" />
    <glyph glyph-name="Aacute" unicode="&#xc1;" horiz-adv-x="1456" 
d="M596 602h309l-67 342q-19 103 -21 166q-46 -129 -65 -172zM-117 0l733 1464h490l311 -1464h-397l-59 276h-512l-140 -276h-426zM674 1608l219 352h309l-377 -352h-151z" />
    <glyph glyph-name="Acircumflex" unicode="&#xc2;" horiz-adv-x="1456" 
d="M596 602h309l-67 342q-19 103 -21 166q-46 -129 -65 -172zM-117 0l733 1464h490l311 -1464h-397l-59 276h-512l-140 -276h-426zM1171 1608h-139l-129 182l-219 -182h-154l248 352h275z" />
    <glyph glyph-name="Atilde" unicode="&#xc3;" horiz-adv-x="1456" 
d="M596 602h309l-67 342q-19 103 -21 166q-46 -129 -65 -172zM-117 0l733 1464h490l311 -1464h-397l-59 276h-512l-140 -276h-426zM1235 1948q-34 -132 -90 -195t-144 -63q-45 0 -88 14l-63 22q-37 11 -64 11q-78 0 -100 -97h-119q62 263 236 263q36 0 92 -17l63 -20
q34 -11 54 -11q40 0 64.5 22t39.5 71h119z" />
    <glyph glyph-name="Adieresis" unicode="&#xc4;" horiz-adv-x="1456" 
d="M596 602h309l-67 342q-19 103 -21 166q-46 -129 -65 -172zM-117 0l733 1464h490l311 -1464h-397l-59 276h-512l-140 -276h-426zM578 1794q0 56 42.5 98.5t100.5 42.5q59 0 99 -41t40 -100q0 -63 -39 -103t-100 -40q-60 0 -101.5 41t-41.5 102zM940 1794q0 56 42.5 98.5
t100.5 42.5q60 0 101 -41t41 -100q0 -63 -40 -103t-102 -40q-60 0 -101.5 41t-41.5 102z" />
    <glyph glyph-name="Aring" unicode="&#xc5;" horiz-adv-x="1456" 
d="M-117 0l754 1464l143 -4v4q-83 22 -132.5 89t-49.5 157q0 110 76 186t186 76t187 -76.5t77 -185.5q0 -86 -47 -151.5t-129 -94.5v-4l135 4l334 -1464h-397l-59 276h-512l-140 -276h-426zM596 602h309l-90 469zM750 1710q0 -47 34.5 -82t81.5 -35q49 0 83 34.5t34 82.5
q0 47 -35 82t-82 35q-48 0 -82 -34t-34 -83z" />
    <glyph glyph-name="AE" unicode="&#xc6;" horiz-adv-x="1875" 
d="M-115 0l740 1464h936l73 -325h-463l56 -244h465l71 -311h-465l60 -258h465l75 -326h-870l-51 295h-522l-144 -295h-426zM922 612l-66 355q-17 96 -20 166q-50 -140 -66 -172l-170 -349h322z" />
    <glyph glyph-name="Ccedilla" unicode="&#xc7;" horiz-adv-x="1337" 
d="M1360 1395l-66 -404q-174 148 -389 148q-182 0 -300 -127t-118 -324q0 -178 98.5 -275.5t280.5 -97.5q153 0 334 76l-61 -379q-148 -49 -361 -49q-208 0 -365 88.5t-241 249t-84 371.5q0 315 191 551q109 134 273.5 205t369.5 71q232 0 438 -104zM428 -438l53 133
q129 -53 234 -53q45 0 71.5 20.5t26.5 54.5q0 37 -38 52.5t-122 15.5h-41l76 215h115l-33 -92q234 -3 234 -174q0 -109 -73 -170.5t-208 -61.5q-103 0 -295 60z" />
    <glyph glyph-name="Egrave" unicode="&#xc8;" horiz-adv-x="1116" 
d="M483 326h453l-51 -326h-844l231 1464h844l-53 -338h-453l-37 -239h420l-49 -318h-422zM440 1960h267l153 -352h-141z" />
    <glyph glyph-name="Eacute" unicode="&#xc9;" horiz-adv-x="1116" 
d="M483 326h453l-51 -326h-844l231 1464h844l-53 -338h-453l-37 -239h420l-49 -318h-422zM508 1608l219 352h309l-377 -352h-151z" />
    <glyph glyph-name="Ecircumflex" unicode="&#xca;" horiz-adv-x="1116" 
d="M483 326h453l-51 -326h-844l231 1464h844l-53 -338h-453l-37 -239h420l-49 -318h-422zM1006 1608h-140l-129 182l-219 -182h-153l247 352h275z" />
    <glyph glyph-name="Edieresis" unicode="&#xcb;" horiz-adv-x="1116" 
d="M483 326h453l-51 -326h-844l231 1464h844l-53 -338h-453l-37 -239h420l-49 -318h-422zM412 1794q0 56 42.5 98.5t100.5 42.5q59 0 99 -41t40 -100q0 -63 -39 -103t-100 -40q-60 0 -101.5 41t-41.5 102zM774 1794q0 56 43 98.5t101 42.5q60 0 100.5 -41t40.5 -100
q0 -63 -39.5 -103t-101.5 -40q-60 0 -102 41t-42 102z" />
    <glyph glyph-name="Igrave" unicode="&#xcc;" horiz-adv-x="724" 
d="M47 0l232 1464h399l-232 -1464h-399zM242 1960h266l154 -352h-142z" />
    <glyph glyph-name="Iacute" unicode="&#xcd;" horiz-adv-x="724" 
d="M47 0l232 1464h399l-232 -1464h-399zM309 1608l219 352h310l-377 -352h-152z" />
    <glyph glyph-name="Icircumflex" unicode="&#xce;" horiz-adv-x="724" 
d="M47 0l232 1464h399l-232 -1464h-399zM807 1608h-139l-129 182l-220 -182h-153l248 352h274z" />
    <glyph glyph-name="Idieresis" unicode="&#xcf;" horiz-adv-x="724" 
d="M47 0l232 1464h399l-232 -1464h-399zM213 1794q0 56 42.5 98.5t100.5 42.5q60 0 100 -41t40 -100q0 -63 -39 -103t-101 -40q-60 0 -101.5 41t-41.5 102zM575 1794q0 56 43 98.5t101 42.5q60 0 100.5 -41t40.5 -100q0 -63 -39.5 -103t-101.5 -40q-60 0 -102 41t-42 102z
" />
    <glyph glyph-name="Eth" unicode="&#xd0;" horiz-adv-x="1568" 
d="M494 326q65 -7 108 -7q242 0 367 118t125 349q0 188 -90.5 271.5t-286.5 83.5h-94l-43 -275h292l-34 -237h-297zM63 0l97 621h-193l41 256h193l94 587h250q243 0 376 -12t222 -57q162 -82 248 -240t86 -377q0 -419 -310 -637q-48 -34 -100.5 -58t-115 -39.5t-117 -24.5
t-135.5 -13t-139.5 -5t-158.5 -1h-338z" />
    <glyph glyph-name="Ntilde" unicode="&#xd1;" horiz-adv-x="1673" 
d="M41 0l231 1464h447l309 -723q2 -5 14.5 -34t18.5 -44.5t16.5 -43.5t19 -57t15.5 -60v37q0 76 18 206l113 719h391l-231 -1464h-430l-328 745q-59 128 -86 240v-41q0 -77 -16 -203l-111 -741h-391zM1356 1948q-34 -132 -90 -195t-144 -63q-45 0 -88 14l-63 22
q-37 11 -64 11q-78 0 -100 -97h-119q62 263 236 263q36 0 92 -17l63 -20q34 -11 54 -11q40 0 64.5 22t39.5 71h119z" />
    <glyph glyph-name="Ograve" unicode="&#xd2;" horiz-adv-x="1763" 
d="M825 -39q-315 0 -514 172q-105 91 -164 226t-59 288q0 329 201 565q117 137 285.5 211t365.5 74q219 0 387 -87t259 -242.5t91 -354.5q0 -331 -202 -565q-121 -140 -286 -213.5t-364 -73.5zM915 1139q-181 0 -301 -129.5t-120 -319.5q0 -169 96.5 -270t257.5 -101
q177 0 299.5 133.5t122.5 325.5q0 159 -101 260t-254 101zM725 1960h266l154 -352h-141z" />
    <glyph glyph-name="Oacute" unicode="&#xd3;" horiz-adv-x="1763" 
d="M825 -39q-315 0 -514 172q-105 91 -164 226t-59 288q0 329 201 565q117 137 285.5 211t365.5 74q219 0 387 -87t259 -242.5t91 -354.5q0 -331 -202 -565q-121 -140 -286 -213.5t-364 -73.5zM915 1139q-181 0 -301 -129.5t-120 -319.5q0 -169 96.5 -270t257.5 -101
q177 0 299.5 133.5t122.5 325.5q0 159 -101 260t-254 101zM793 1608l219 352h309l-377 -352h-151z" />
    <glyph glyph-name="Ocircumflex" unicode="&#xd4;" horiz-adv-x="1763" 
d="M825 -39q-315 0 -514 172q-105 91 -164 226t-59 288q0 329 201 565q117 137 285.5 211t365.5 74q219 0 387 -87t259 -242.5t91 -354.5q0 -331 -202 -565q-121 -140 -286 -213.5t-364 -73.5zM915 1139q-181 0 -301 -129.5t-120 -319.5q0 -169 96.5 -270t257.5 -101
q177 0 299.5 133.5t122.5 325.5q0 159 -101 260t-254 101zM1290 1608h-139l-129 182l-219 -182h-154l248 352h274z" />
    <glyph glyph-name="Otilde" unicode="&#xd5;" horiz-adv-x="1763" 
d="M825 -39q-315 0 -514 172q-105 91 -164 226t-59 288q0 329 201 565q117 137 285.5 211t365.5 74q219 0 387 -87t259 -242.5t91 -354.5q0 -331 -202 -565q-121 -140 -286 -213.5t-364 -73.5zM915 1139q-181 0 -301 -129.5t-120 -319.5q0 -169 96.5 -270t257.5 -101
q177 0 299.5 133.5t122.5 325.5q0 159 -101 260t-254 101zM1354 1948q-34 -132 -90 -195t-144 -63q-45 0 -88 14l-63 22q-37 11 -64 11q-78 0 -100 -97h-119q62 263 236 263q36 0 92 -17l63 -20q34 -11 53 -11q40 0 65 22t40 71h119z" />
    <glyph glyph-name="Odieresis" unicode="&#xd6;" horiz-adv-x="1763" 
d="M825 -39q-315 0 -514 172q-105 91 -164 226t-59 288q0 329 201 565q117 137 285.5 211t365.5 74q219 0 387 -87t259 -242.5t91 -354.5q0 -331 -202 -565q-121 -140 -286 -213.5t-364 -73.5zM915 1139q-181 0 -301 -129.5t-120 -319.5q0 -169 96.5 -270t257.5 -101
q177 0 299.5 133.5t122.5 325.5q0 159 -101 260t-254 101zM696 1794q0 56 43 98.5t101 42.5q59 0 99 -41t40 -100q0 -63 -39 -103t-100 -40q-60 0 -102 41t-42 102zM1059 1794q0 56 42.5 98.5t100.5 42.5q60 0 100.5 -41t40.5 -100q0 -63 -39.5 -103t-101.5 -40
q-60 0 -101.5 41t-41.5 102z" />
    <glyph glyph-name="multiply" unicode="&#xd7;" horiz-adv-x="1705" 
d="M430 1214l440 -440l441 440l162 -161l-441 -443l441 -440l-162 -162l-441 441l-440 -441l-162 162l441 440l-441 443z" />
    <glyph glyph-name="Oslash" unicode="&#xd8;" horiz-adv-x="1763" 
d="M197 -72l-101 90l162 162q-174 194 -174 484q0 150 54 295.5t153 263.5q235 278 645 278q271 0 475 -139l148 151l100 -94l-148 -149q168 -192 168 -463q0 -318 -206 -563q-244 -287 -656 -287q-283 0 -461 133zM1141 1094q-110 73 -223 73q-192 0 -318.5 -136.5
t-126.5 -340.5q0 -124 53 -219zM618 365q82 -68 226 -68q125 0 227.5 64.5t160.5 176.5t58 246q0 119 -59 211z" />
    <glyph glyph-name="Ugrave" unicode="&#xd9;" horiz-adv-x="1529" 
d="M254 1464h393l-117 -735q-24 -147 -24 -215q0 -94 53 -146.5t148 -52.5q48 0 85.5 12t65.5 36t49.5 60t38 85t29.5 109.5t25.5 134t26.5 159.5l3 21l84 532h393l-131 -831q-16 -100 -24.5 -143.5t-30.5 -115t-53 -124.5q-82 -142 -231.5 -217.5t-352.5 -75.5
q-262 0 -420 126t-158 333q0 119 48 424zM643 1960h266l154 -352h-141z" />
    <glyph glyph-name="Uacute" unicode="&#xda;" horiz-adv-x="1529" 
d="M254 1464h393l-117 -735q-24 -147 -24 -215q0 -94 53 -146.5t148 -52.5q48 0 85.5 12t65.5 36t49.5 60t38 85t29.5 109.5t25.5 134t26.5 159.5l3 21l84 532h393l-131 -831q-16 -100 -24.5 -143.5t-30.5 -115t-53 -124.5q-82 -142 -231.5 -217.5t-352.5 -75.5
q-262 0 -420 126t-158 333q0 119 48 424zM711 1608l219 352h309l-377 -352h-151z" />
    <glyph glyph-name="Ucircumflex" unicode="&#xdb;" horiz-adv-x="1529" 
d="M254 1464h393l-117 -735q-24 -147 -24 -215q0 -94 53 -146.5t148 -52.5q48 0 85.5 12t65.5 36t49.5 60t38 85t29.5 109.5t25.5 134t26.5 159.5l3 21l84 532h393l-131 -831q-16 -100 -24.5 -143.5t-30.5 -115t-53 -124.5q-82 -142 -231.5 -217.5t-352.5 -75.5
q-262 0 -420 126t-158 333q0 119 48 424zM1208 1608h-139l-129 182l-219 -182h-154l248 352h275z" />
    <glyph glyph-name="Udieresis" unicode="&#xdc;" horiz-adv-x="1529" 
d="M254 1464h393l-117 -735q-24 -147 -24 -215q0 -94 53 -146.5t148 -52.5q48 0 85.5 12t65.5 36t49.5 60t38 85t29.5 109.5t25.5 134t26.5 159.5l3 21l84 532h393l-131 -831q-16 -100 -24.5 -143.5t-30.5 -115t-53 -124.5q-82 -142 -231.5 -217.5t-352.5 -75.5
q-262 0 -420 126t-158 333q0 119 48 424zM614 1794q0 56 43 98.5t101 42.5q59 0 99 -41t40 -100q0 -63 -39 -103t-100 -40q-60 0 -102 41t-42 102zM977 1794q0 56 42.5 98.5t100.5 42.5q60 0 101 -41t41 -100q0 -63 -40 -103t-102 -40q-60 0 -101.5 41t-41.5 102z" />
    <glyph glyph-name="Yacute" unicode="&#xdd;" horiz-adv-x="1193" 
d="M268 0l103 653l-412 811h436l160 -374q28 -65 53 -144q51 121 70 148l260 370h451l-625 -815l-102 -649h-394zM543 1608l219 352h309l-377 -352h-151z" />
    <glyph glyph-name="Thorn" unicode="&#xde;" horiz-adv-x="1318" 
d="M477 283l-47 -283h-389l233 1464h390l-39 -227h59q292 0 435 -111.5t143 -343.5q0 -139 -61 -255t-161 -179q-68 -42 -152 -53.5t-224 -11.5h-187zM526 592h37q171 0 246.5 35.5t75.5 142.5q0 81 -57.5 118.5t-178.5 37.5h-71z" />
    <glyph glyph-name="germandbls" unicode="&#xdf;" horiz-adv-x="1345" 
d="M16 0l158 1012q27 168 64.5 267t119.5 167q145 121 406 121q239 0 370.5 -104t131.5 -285q0 -148 -83 -236t-243 -108q158 -40 234.5 -127.5t76.5 -229.5q0 -227 -144 -365.5t-392 -138.5q-119 0 -211 35l41 258q60 -18 119 -18q101 0 165 73.5t64 190.5
q0 109 -69.5 168.5t-202.5 60.5l36 232q18 -2 56 -2q110 0 167.5 48.5t57.5 139.5q0 64 -45.5 106t-116.5 42q-52 0 -90 -13.5t-63.5 -37t-44.5 -67.5t-30.5 -91.5t-23.5 -122.5l-153 -975h-355z" />
    <glyph glyph-name="agrave" unicode="&#xe0;" horiz-adv-x="1366" 
d="M799 135q-147 -172 -355 -172q-173 0 -285 130t-112 341q0 263 151.5 435.5t376.5 172.5q206 0 338 -178l23 146h338l-160 -1010h-332zM406 469q0 -98 59.5 -156.5t155.5 -58.5q106 0 176.5 82.5t70.5 206.5q0 94 -59 152.5t-154 58.5q-108 0 -178.5 -81t-70.5 -204z
M520 1505h266l154 -352h-141z" />
    <glyph glyph-name="aacute" unicode="&#xe1;" horiz-adv-x="1366" 
d="M799 135q-147 -172 -355 -172q-173 0 -285 130t-112 341q0 263 151.5 435.5t376.5 172.5q206 0 338 -178l23 146h338l-160 -1010h-332zM406 469q0 -98 59.5 -156.5t155.5 -58.5q106 0 176.5 82.5t70.5 206.5q0 94 -59 152.5t-154 58.5q-108 0 -178.5 -81t-70.5 -204z
M588 1153l219 352h309l-377 -352h-151z" />
    <glyph glyph-name="acircumflex" unicode="&#xe2;" horiz-adv-x="1366" 
d="M799 135q-147 -172 -355 -172q-173 0 -285 130t-112 341q0 263 151.5 435.5t376.5 172.5q206 0 338 -178l23 146h338l-160 -1010h-332zM406 469q0 -98 59.5 -156.5t155.5 -58.5q106 0 176.5 82.5t70.5 206.5q0 94 -59 152.5t-154 58.5q-108 0 -178.5 -81t-70.5 -204z
M1085 1153h-139l-129 182l-219 -182h-154l248 352h275z" />
    <glyph glyph-name="atilde" unicode="&#xe3;" horiz-adv-x="1366" 
d="M799 135q-147 -172 -355 -172q-173 0 -285 130t-112 341q0 263 151.5 435.5t376.5 172.5q206 0 338 -178l23 146h338l-160 -1010h-332zM406 469q0 -98 59.5 -156.5t155.5 -58.5q106 0 176.5 82.5t70.5 206.5q0 94 -59 152.5t-154 58.5q-108 0 -178.5 -81t-70.5 -204z
M1149 1493q-34 -132 -90 -195t-144 -63q-45 0 -88 14l-63 23q-33 10 -64 10q-37 0 -63.5 -24.5t-36.5 -71.5h-119q62 262 236 262q39 0 92 -16l63 -21q31 -10 54 -10q40 0 64.5 21.5t39.5 70.5h119z" />
    <glyph glyph-name="adieresis" unicode="&#xe4;" horiz-adv-x="1366" 
d="M799 135q-147 -172 -355 -172q-173 0 -285 130t-112 341q0 263 151.5 435.5t376.5 172.5q206 0 338 -178l23 146h338l-160 -1010h-332zM406 469q0 -98 59.5 -156.5t155.5 -58.5q106 0 176.5 82.5t70.5 206.5q0 94 -59 152.5t-154 58.5q-108 0 -178.5 -81t-70.5 -204z
M492 1339q0 56 42.5 99t100.5 43q59 0 99 -41.5t40 -100.5q0 -63 -39 -103t-100 -40q-60 0 -101.5 41t-41.5 102zM854 1339q0 56 42.5 99t100.5 43q60 0 101 -41.5t41 -100.5q0 -63 -40 -103t-102 -40q-60 0 -101.5 41t-41.5 102z" />
    <glyph glyph-name="aring" unicode="&#xe5;" horiz-adv-x="1366" 
d="M799 135q-147 -172 -355 -172q-173 0 -285 130t-112 341q0 263 151.5 435.5t376.5 172.5q206 0 338 -178l23 146h338l-160 -1010h-332zM406 469q0 -98 59.5 -156.5t155.5 -58.5q106 0 176.5 82.5t70.5 206.5q0 94 -59 152.5t-154 58.5q-108 0 -178.5 -81t-70.5 -204z
M487 1360q0 110 76.5 186t186.5 76q109 0 185.5 -76t76.5 -186q0 -109 -76 -185.5t-186 -76.5t-186.5 76t-76.5 186zM627 1360q0 -54 35 -88.5t88 -34.5q52 0 87 35t35 88q0 51 -35.5 87t-86.5 36t-87 -36t-36 -87z" />
    <glyph glyph-name="ae" unicode="&#xe6;" horiz-adv-x="1867" 
d="M326 301q0 -115 153 -115q69 0 110.5 31t41.5 82q0 53 -42 84t-112 31q-71 0 -111 -31t-40 -82zM1462 625q-1 79 -51.5 128.5t-128.5 49.5q-71 0 -126.5 -46t-86.5 -132h393zM1769 420h-727v-19q0 -200 187 -200q70 0 130.5 27.5t125.5 88.5l192 -194
q-86 -79 -197 -121.5t-233 -42.5q-154 0 -257 44t-167 138q-71 -96 -171 -140t-240 -44q-205 0 -313.5 88.5t-108.5 251.5q0 159 112 253.5t295 94.5q162 0 279 -94v67q0 84 -67 131.5t-187 47.5q-142 0 -303 -90l53 270q145 61 334 61q263 0 381 -207q140 209 403 209
q220 0 354 -139.5t134 -368.5q0 -44 -9 -112z" />
    <glyph glyph-name="ccedilla" unicode="&#xe7;" 
d="M889 641q-108 117 -230 117q-106 0 -176.5 -81.5t-70.5 -201.5q0 -100 54.5 -158.5t149.5 -58.5q117 0 226 84l-54 -332q-140 -49 -268 -49q-214 0 -346.5 139t-132.5 361q0 258 163 422t431 164q171 0 303 -97zM221 -438l53 133q129 -53 234 -53q45 0 71.5 20.5
t26.5 54.5q0 37 -38 52.5t-122 15.5h-40l75 215h115l-33 -92q234 -3 234 -174q0 -109 -73 -170.5t-208 -61.5q-103 0 -295 60z" />
    <glyph glyph-name="egrave" unicode="&#xe8;" horiz-adv-x="1222" 
d="M367 420v-23q0 -96 49 -146t143 -50q67 0 126 27.5t124 88.5l192 -194q-173 -164 -450 -164q-248 0 -384 132t-136 368q0 259 162.5 421t420.5 162q234 0 376.5 -143.5t142.5 -378.5q0 -8 -9 -100h-757zM799 625q-4 83 -54.5 130.5t-132.5 47.5q-73 0 -132 -46.5
t-89 -131.5h408zM393 1505h266l154 -352h-141z" />
    <glyph glyph-name="eacute" unicode="&#xe9;" horiz-adv-x="1222" 
d="M367 420v-23q0 -96 49 -146t143 -50q67 0 126 27.5t124 88.5l192 -194q-173 -164 -450 -164q-248 0 -384 132t-136 368q0 259 162.5 421t420.5 162q234 0 376.5 -143.5t142.5 -378.5q0 -8 -9 -100h-757zM799 625q-4 83 -54.5 130.5t-132.5 47.5q-73 0 -132 -46.5
t-89 -131.5h408zM461 1153l219 352h309l-377 -352h-151z" />
    <glyph glyph-name="ecircumflex" unicode="&#xea;" horiz-adv-x="1222" 
d="M367 420v-23q0 -96 49 -146t143 -50q67 0 126 27.5t124 88.5l192 -194q-173 -164 -450 -164q-248 0 -384 132t-136 368q0 259 162.5 421t420.5 162q234 0 376.5 -143.5t142.5 -378.5q0 -8 -9 -100h-757zM799 625q-4 83 -54.5 130.5t-132.5 47.5q-73 0 -132 -46.5
t-89 -131.5h408zM958 1153h-139l-129 182l-219 -182h-154l248 352h275z" />
    <glyph glyph-name="edieresis" unicode="&#xeb;" horiz-adv-x="1222" 
d="M367 420v-23q0 -96 49 -146t143 -50q67 0 126 27.5t124 88.5l192 -194q-173 -164 -450 -164q-248 0 -384 132t-136 368q0 259 162.5 421t420.5 162q234 0 376.5 -143.5t142.5 -378.5q0 -8 -9 -100h-757zM799 625q-4 83 -54.5 130.5t-132.5 47.5q-73 0 -132 -46.5
t-89 -131.5h408zM365 1339q0 56 42.5 99t100.5 43q59 0 99 -41.5t40 -100.5q0 -63 -39 -103t-100 -40q-60 0 -101.5 41t-41.5 102zM727 1339q0 56 42.5 99t100.5 43q60 0 101 -41.5t41 -100.5q0 -63 -40 -103t-102 -40q-60 0 -101.5 41t-41.5 102z" />
    <glyph glyph-name="igrave" unicode="&#xec;" horiz-adv-x="638" 
d="M27 0l159 1010h359l-160 -1010h-358zM135 1505h266l154 -352h-141z" />
    <glyph glyph-name="iacute" unicode="&#xed;" horiz-adv-x="638" 
d="M27 0l159 1010h359l-160 -1010h-358zM203 1153l219 352h309l-377 -352h-151z" />
    <glyph glyph-name="icircumflex" unicode="&#xee;" horiz-adv-x="638" 
d="M27 0l159 1010h359l-160 -1010h-358zM700 1153h-139l-129 182l-219 -182h-154l248 352h275z" />
    <glyph glyph-name="idieresis" unicode="&#xef;" horiz-adv-x="638" 
d="M27 0l159 1010h359l-160 -1010h-358zM106 1339q0 56 43 99t101 43q59 0 99 -41.5t40 -100.5q0 -63 -39 -103t-100 -40q-60 0 -102 41t-42 102zM469 1339q0 56 42.5 99t100.5 43q60 0 101 -41.5t41 -100.5q0 -63 -40 -103t-102 -40q-60 0 -101.5 41t-41.5 102z" />
    <glyph glyph-name="eth" unicode="&#xf0;" horiz-adv-x="1255" 
d="M858 877q-32 141 -108 260l-285 -66l-35 139l223 52q-77 82 -135 141l217 149q140 -116 221 -221l275 64l39 -140l-223 -51q139 -257 139 -530q0 -329 -171 -522t-462 -193q-235 0 -379.5 134.5t-144.5 350.5q0 226 147 379q78 81 181.5 126.5t211.5 45.5q210 0 289 -118
zM612 721q-102 0 -171.5 -80t-69.5 -195q0 -91 52.5 -142.5t145.5 -51.5q105 0 174.5 77t69.5 197q0 91 -53.5 143t-147.5 52z" />
    <glyph glyph-name="ntilde" unicode="&#xf1;" horiz-adv-x="1290" 
d="M10 0l160 1010h342l-25 -158q81 98 162.5 144t181.5 46q157 0 243.5 -84.5t86.5 -236.5q0 -51 -20 -191l-84 -530h-357l84 535q9 56 9 83q0 134 -138 134q-95 0 -147 -68.5t-74 -212.5l-72 -471h-352zM1090 1493q-34 -132 -90 -195t-144 -63q-45 0 -88 14l-63 23
q-33 10 -64 10q-37 0 -63.5 -24.5t-36.5 -71.5h-119q62 262 235 262q40 0 93 -16l63 -21q31 -10 53 -10q40 0 65 21.5t40 70.5h119z" />
    <glyph glyph-name="ograve" unicode="&#xf2;" horiz-adv-x="1255" 
d="M27 457q0 258 168.5 422.5t429.5 164.5q244 0 388 -137.5t144 -365.5q0 -123 -44 -230.5t-122.5 -185t-193 -122t-248.5 -44.5q-237 0 -379.5 136.5t-142.5 361.5zM618 754q-105 0 -177 -87t-72 -214q0 -93 53 -148t141 -55q112 0 183 85t71 216q0 95 -54 149t-145 54z
M410 1505h266l153 -352h-141z" />
    <glyph glyph-name="oacute" unicode="&#xf3;" horiz-adv-x="1255" 
d="M27 457q0 258 168.5 422.5t429.5 164.5q244 0 388 -137.5t144 -365.5q0 -123 -44 -230.5t-122.5 -185t-193 -122t-248.5 -44.5q-237 0 -379.5 136.5t-142.5 361.5zM618 754q-105 0 -177 -87t-72 -214q0 -93 53 -148t141 -55q112 0 183 85t71 216q0 95 -54 149t-145 54z
M477 1153l219 352h310l-377 -352h-152z" />
    <glyph glyph-name="ocircumflex" unicode="&#xf4;" horiz-adv-x="1255" 
d="M27 457q0 258 168.5 422.5t429.5 164.5q244 0 388 -137.5t144 -365.5q0 -123 -44 -230.5t-122.5 -185t-193 -122t-248.5 -44.5q-237 0 -379.5 136.5t-142.5 361.5zM618 754q-105 0 -177 -87t-72 -214q0 -93 53 -148t141 -55q112 0 183 85t71 216q0 95 -54 149t-145 54z
M975 1153h-139l-129 182l-220 -182h-153l248 352h274z" />
    <glyph glyph-name="otilde" unicode="&#xf5;" horiz-adv-x="1255" 
d="M27 457q0 258 168.5 422.5t429.5 164.5q244 0 388 -137.5t144 -365.5q0 -123 -44 -230.5t-122.5 -185t-193 -122t-248.5 -44.5q-237 0 -379.5 136.5t-142.5 361.5zM618 754q-105 0 -177 -87t-72 -214q0 -93 53 -148t141 -55q112 0 183 85t71 216q0 95 -54 149t-145 54z
M1038 1493q-34 -133 -89.5 -195.5t-143.5 -62.5q-45 0 -88 14l-64 23q-33 10 -63 10q-37 0 -64 -24.5t-37 -71.5h-118q62 262 235 262q39 0 92 -16l64 -21q31 -10 53 -10q40 0 65 21.5t40 70.5h118z" />
    <glyph glyph-name="odieresis" unicode="&#xf6;" horiz-adv-x="1255" 
d="M27 457q0 258 168.5 422.5t429.5 164.5q244 0 388 -137.5t144 -365.5q0 -123 -44 -230.5t-122.5 -185t-193 -122t-248.5 -44.5q-237 0 -379.5 136.5t-142.5 361.5zM618 754q-105 0 -177 -87t-72 -214q0 -93 53 -148t141 -55q112 0 183 85t71 216q0 95 -54 149t-145 54z
M381 1339q0 56 42.5 99t100.5 43q59 0 99.5 -41.5t40.5 -100.5q0 -63 -39 -103t-101 -40q-60 0 -101.5 41t-41.5 102zM743 1339q0 56 43 99t101 43q60 0 100.5 -41.5t40.5 -100.5q0 -63 -39.5 -103t-101.5 -40q-60 0 -102 41t-42 102z" />
    <glyph glyph-name="divide" unicode="&#xf7;" horiz-adv-x="1705" 
d="M854 1182q66 0 115 -49t49 -117q0 -67 -48 -115.5t-118 -48.5q-69 0 -116.5 48t-47.5 116q0 69 49 117.5t117 48.5zM254 727h1198v-231h-1198v231zM854 371q68 0 116 -48.5t48 -117.5q0 -67 -47.5 -115.5t-116.5 -48.5q-68 0 -117 48t-49 116q0 69 49 117.5t117 48.5z
" />
    <glyph glyph-name="oslash" unicode="&#xf8;" horiz-adv-x="1255" 
d="M799 662l-359 -388q51 -32 119 -32q118 0 192 88.5t74 228.5q0 40 -26 103zM733 733q-54 31 -106 31q-116 0 -193.5 -89t-77.5 -222q0 -55 21 -99zM113 -86l-82 78l119 125q-123 126 -123 340q0 258 169.5 422.5t436.5 164.5q182 0 307 -81l102 110l84 -72l-100 -110
q131 -137 131 -344q0 -125 -44 -233.5t-123 -186.5t-193.5 -123t-249.5 -45q-169 0 -311 86z" />
    <glyph glyph-name="ugrave" unicode="&#xf9;" horiz-adv-x="1251" 
d="M152 1010h354l-66 -418q-26 -175 -26 -211q0 -72 34.5 -110t100.5 -38q99 0 142 76q32 57 58 222q3 16 8 50q3 19 5 29l63 400h355l-72 -457q-31 -191 -53 -260q-38 -121 -115 -195q-143 -137 -405 -137q-225 0 -352.5 102t-127.5 273q0 68 35 287zM426 1505h266
l154 -352h-141z" />
    <glyph glyph-name="uacute" unicode="&#xfa;" horiz-adv-x="1251" 
d="M152 1010h354l-66 -418q-26 -175 -26 -211q0 -72 34.5 -110t100.5 -38q99 0 142 76q32 57 58 222q3 16 8 50q3 19 5 29l63 400h355l-72 -457q-31 -191 -53 -260q-38 -121 -115 -195q-143 -137 -405 -137q-225 0 -352.5 102t-127.5 273q0 68 35 287zM494 1153l219 352h309
l-377 -352h-151z" />
    <glyph glyph-name="ucircumflex" unicode="&#xfb;" horiz-adv-x="1251" 
d="M152 1010h354l-66 -418q-26 -175 -26 -211q0 -72 34.5 -110t100.5 -38q99 0 142 76q32 57 58 222q3 16 8 50q3 19 5 29l63 400h355l-72 -457q-31 -191 -53 -260q-38 -121 -115 -195q-143 -137 -405 -137q-225 0 -352.5 102t-127.5 273q0 68 35 287zM991 1153h-139
l-129 182l-219 -182h-154l248 352h274z" />
    <glyph glyph-name="udieresis" unicode="&#xfc;" horiz-adv-x="1251" 
d="M152 1010h354l-66 -418q-26 -175 -26 -211q0 -72 34.5 -110t100.5 -38q99 0 142 76q32 57 58 222q3 16 8 50q3 19 5 29l63 400h355l-72 -457q-31 -191 -53 -260q-38 -121 -115 -195q-143 -137 -405 -137q-225 0 -352.5 102t-127.5 273q0 68 35 287zM397 1339q0 56 43 99
t101 43q59 0 99 -41.5t40 -100.5q0 -63 -39 -103t-100 -40q-60 0 -102 41t-42 102zM760 1339q0 56 42.5 99t100.5 43q60 0 100.5 -41.5t40.5 -100.5q0 -63 -39.5 -103t-101.5 -40q-60 0 -101.5 41t-41.5 102z" />
    <glyph glyph-name="yacute" unicode="&#xfd;" horiz-adv-x="1075" 
d="M262 51l-287 959h369l88 -437q2 -8 7.5 -33t8.5 -42t6.5 -45.5t4.5 -55.5q24 85 71 181l209 432h383l-784 -1456h-373zM422 1153l219 352h309l-377 -352h-151z" />
    <glyph glyph-name="thorn" unicode="&#xfe;" horiz-adv-x="1366" 
d="M385 143q0 -101 -10 -159l-66 -430h-352l315 1996h351l-86 -544q-7 -42 -35 -136q140 177 334 177q188 0 302.5 -129t114.5 -345q0 -173 -69 -312.5t-189.5 -217.5t-269.5 -78q-104 0 -185.5 43.5t-154.5 134.5zM887 528q0 98 -58.5 156.5t-154.5 58.5
q-107 0 -178.5 -82.5t-71.5 -211.5q0 -90 59 -147.5t154 -57.5q109 0 179.5 80.5t70.5 203.5z" />
    <glyph glyph-name="ydieresis" unicode="&#xff;" horiz-adv-x="1075" 
d="M262 51l-287 959h369l88 -437q2 -8 7.5 -33t8.5 -42t6.5 -45.5t4.5 -55.5q24 85 71 181l209 432h383l-784 -1456h-373zM326 1339q0 56 42.5 99t100.5 43q59 0 99 -41.5t40 -100.5q0 -63 -39 -103t-100 -40q-60 0 -101.5 41t-41.5 102zM688 1339q0 56 42.5 99t100.5 43
q60 0 101 -41.5t41 -100.5q0 -63 -40 -103t-102 -40q-60 0 -101.5 41t-41.5 102z" />
    <glyph glyph-name="dotlessi" unicode="&#x131;" horiz-adv-x="638" 
d="M27 0l159 1010h359l-160 -1010h-358z" />
    <glyph glyph-name="Lslash" unicode="&#x141;" horiz-adv-x="1085" 
d="M78 0l86 539l-131 -76l-96 221l274 154l100 626h394l-70 -430l262 152l123 -205l-432 -248l-60 -383h484l-56 -350h-878z" />
    <glyph glyph-name="lslash" unicode="&#x142;" horiz-adv-x="698" 
d="M141 553l-112 -68l-95 183l248 143l119 739h358l-94 -583l115 67l102 -176l-258 -147l-112 -711h-359z" />
    <glyph glyph-name="OE" unicode="&#x152;" horiz-adv-x="2203" 
d="M2208 1464l-54 -338h-452l-39 -239h422l-51 -318h-422l-37 -243h453l-52 -326h-821l23 154q-162 -189 -422 -189q-198 0 -351.5 87t-238 245t-84.5 362q0 319 201 555q116 137 279 212t349 75q308 0 453 -205l25 168h819zM913 1163q-190 0 -316 -136.5t-126 -338.5
q0 -178 101.5 -284.5t271.5 -106.5q123 0 224.5 65t159.5 176.5t58 243.5q0 167 -106 274t-267 107z" />
    <glyph glyph-name="oe" unicode="&#x153;" horiz-adv-x="1972" 
d="M629 784q-113 0 -190 -95.5t-77 -239.5q0 -107 55 -168.5t148 -61.5q117 0 191.5 94t74.5 244q0 106 -53.5 166.5t-148.5 60.5zM1575 625q-6 85 -55 131.5t-131 46.5q-73 0 -132.5 -46.5t-89.5 -131.5h408zM1882 420h-739v-19q0 -200 186 -200q70 0 130.5 27.5
t125.5 88.5l193 -194q-178 -164 -428 -164q-270 0 -404 131q-150 -129 -395 -129q-237 0 -380.5 133t-143.5 348q0 268 168 435t434 167q238 0 379 -135q160 133 378 133q226 0 364 -140.5t138 -369.5q0 -17 -2.5 -56t-3.5 -56z" />
    <glyph glyph-name="Scaron" unicode="&#x160;" horiz-adv-x="1175" 
d="M172 504q90 -96 173 -142.5t175 -46.5q75 0 118.5 36.5t43.5 94.5q0 29 -10.5 51.5t-37.5 43.5t-53 36t-77 42q-18 9 -27 14q-78 40 -129.5 75.5t-92.5 80t-60 98t-19 121.5q0 216 146 354.5t378 138.5q247 0 447 -170l-168 -289q-155 134 -264 134q-61 0 -100.5 -34.5
t-39.5 -84.5q0 -19 8.5 -36.5t21.5 -30t37.5 -27.5t45.5 -26t57 -29.5t62 -33.5q147 -81 210.5 -168t63.5 -225q0 -234 -161.5 -376t-444.5 -142q-299 0 -506 248zM469 1960h141l129 -180l219 180h152l-248 -352h-272z" />
    <glyph glyph-name="scaron" unicode="&#x161;" horiz-adv-x="940" 
d="M856 936l-104 -227q-133 94 -242 94q-50 0 -80.5 -22t-30.5 -54q0 -15 6 -26.5t15.5 -19.5t27 -17t34 -15t44 -16.5t49.5 -20.5q137 -60 199 -126.5t62 -172.5q0 -158 -122 -255t-329 -97q-229 0 -426 123l119 242q95 -58 165.5 -86.5t135.5 -28.5q54 0 85.5 24t31.5 60
q0 20 -8 35.5t-32 30.5t-41 23t-63.5 26.5t-70.5 29.5q-113 51 -164 111.5t-51 153.5q0 141 119 239t313 98q197 0 358 -106zM289 1505h141l129 -180l219 180h152l-248 -352h-272z" />
    <glyph glyph-name="Ydieresis" unicode="&#x178;" horiz-adv-x="1193" 
d="M268 0l103 653l-412 811h436l160 -374q28 -65 53 -144q51 121 70 148l260 370h451l-625 -815l-102 -649h-394zM446 1794q0 56 43 98.5t101 42.5q59 0 99 -41t40 -100q0 -63 -39 -103t-100 -40q-60 0 -102 41t-42 102zM809 1794q0 56 42.5 98.5t100.5 42.5q60 0 101 -41
t41 -100q0 -63 -40 -103t-102 -40q-60 0 -101.5 41t-41.5 102z" />
    <glyph glyph-name="Zcaron" unicode="&#x17d;" horiz-adv-x="1331" 
d="M-113 0l842 1143h-563l45 321h1208l-823 -1116h647l-53 -348h-1303zM547 1960h141l129 -180l219 180h152l-248 -352h-272z" />
    <glyph glyph-name="zcaron" unicode="&#x17e;" horiz-adv-x="1097" 
d="M-106 0l608 758h-416l39 252h975l-584 -723h463l-45 -287h-1040zM367 1505h141l129 -180l219 180h152l-248 -352h-273z" />
    <glyph glyph-name="florin" unicode="&#x192;" horiz-adv-x="1251" 
d="M154 -117q31 -8 61 -8q35 0 58.5 12.5t40 36.5t28.5 67.5t21.5 95t21.5 129.5q8 50 12 77l66 397h-174l41 248h174l26 152q18 104 46.5 174t76 120.5t117.5 73.5t168 23q84 0 186 -29l-45 -260q-61 25 -104 25q-51 0 -80 -35.5t-41 -106.5l-25 -137h207l-41 -248h-207
l-86 -518q-27 -166 -53 -263.5t-69 -160.5q-91 -137 -322 -137q-70 0 -162 20z" />
    <glyph glyph-name="circumflex" unicode="&#x2c6;" 
d="M893 1153h-139l-129 182l-219 -182h-154l248 352h274z" />
    <glyph glyph-name="caron" unicode="&#x2c7;" 
d="M330 1505h141l129 -180l219 180h152l-248 -352h-272z" />
    <glyph glyph-name="breve" unicode="&#x2d8;" 
d="M338 1493h131v-10q0 -131 145 -131q158 0 222 141h135q-89 -309 -375 -309q-260 0 -260 266q0 7 1 21.5t1 21.5z" />
    <glyph glyph-name="dotaccent" unicode="&#x2d9;" 
d="M473 1339q0 58 45.5 103t104.5 45q61 0 104 -43t43 -105q0 -65 -41.5 -107t-105.5 -42q-62 0 -106 44t-44 105z" />
    <glyph glyph-name="ring" unicode="&#x2da;" 
d="M369 1407q0 114 78 192t192 78t193 -78t79 -192t-79 -193t-193 -79t-192 78.5t-78 193.5zM518 1405q0 -53 35 -88t88 -35q52 0 86.5 35t34.5 88t-35 89t-86 36q-53 0 -88 -35.5t-35 -89.5z" />
    <glyph glyph-name="ogonek" unicode="&#x2db;" 
d="M465 0q-61 -56 -90 -102.5t-29 -94.5q0 -79 76 -79h119l-29 -191h-61q-151 0 -219 43.5t-68 153.5q0 76 47.5 141t146.5 129h107z" />
    <glyph glyph-name="tilde" unicode="&#x2dc;" 
d="M956 1493q-34 -133 -89.5 -195.5t-143.5 -62.5q-45 0 -88 14l-64 23q-33 10 -63 10q-37 0 -63.5 -24.5t-36.5 -71.5h-119q62 262 235 262q39 0 92 -16l64 -21q31 -10 53 -10q40 0 65 21.5t40 70.5h118z" />
    <glyph glyph-name="hungarumlaut" unicode="&#x2dd;" 
d="M350 1153l137 352h265l-291 -352h-111zM651 1153l183 352h272l-334 -352h-121z" />
    <glyph glyph-name="endash" unicode="&#x2013;" 
d="M-57 371l41 264h1024l-41 -264h-1024z" />
    <glyph glyph-name="emdash" unicode="&#x2014;" horiz-adv-x="2048" 
d="M-57 371l41 264h2048l-41 -264h-2048z" />
    <glyph glyph-name="quoteleft" unicode="&#x2018;" horiz-adv-x="735" 
d="M823 1464l-362 -612h-426l481 612h307z" />
    <glyph glyph-name="quoteright" unicode="&#x2019;" horiz-adv-x="735" 
d="M37 852l364 612h424l-481 -612h-307z" />
    <glyph glyph-name="quotesinglbase" unicode="&#x201a;" horiz-adv-x="735" 
d="M-180 -291l362 613h426l-481 -613h-307z" />
    <glyph glyph-name="quotedblleft" unicode="&#x201c;" horiz-adv-x="1337" 
d="M825 1464l-364 -612h-424l481 612h307zM1430 1464l-363 -612h-426l481 612h308z" />
    <glyph glyph-name="quotedblright" unicode="&#x201d;" horiz-adv-x="1337" 
d="M641 852l365 612h426l-482 -612h-309zM39 852l364 612h424l-481 -612h-307z" />
    <glyph glyph-name="quotedblbase" unicode="&#x201e;" horiz-adv-x="1337" 
d="M403 -291l365 613h426l-481 -613h-310zM-197 -291l363 613h426l-481 -613h-308z" />
    <glyph glyph-name="dagger" unicode="&#x2020;" horiz-adv-x="1228" 
d="M240 -446l170 1075h-363l53 340h365l78 495h358l-78 -495h377l-53 -340h-379l-170 -1075h-358z" />
    <glyph glyph-name="daggerdbl" unicode="&#x2021;" horiz-adv-x="1228" 
d="M317 -12h-370l51 325h371l63 398h-371l52 327h370l68 426h340l-68 -426h387l-51 -327h-389l-61 -398h387l-52 -325h-389l-67 -434h-340z" />
    <glyph glyph-name="bullet" unicode="&#x2022;" horiz-adv-x="1208" 
d="M307 762q0 123 87 209t210 86q122 0 208.5 -86t86.5 -209q0 -122 -87 -209.5t-210 -87.5t-209 87t-86 210z" />
    <glyph glyph-name="ellipsis" unicode="&#x2026;" horiz-adv-x="2048" 
d="M66 166q0 83 58 142t142 59q85 0 144 -57.5t59 -143.5q0 -87 -58.5 -145t-142.5 -58t-143 60t-59 143zM748 166q0 83 58 142t142 59q85 0 144 -57.5t59 -143.5q0 -87 -58.5 -145t-142.5 -58t-143 60t-59 143zM1432 166q0 83 58 142t142 59q85 0 144 -57.5t59 -143.5
q0 -87 -58.5 -145t-142.5 -58t-143 60t-59 143z" />
    <glyph glyph-name="perthousand" unicode="&#x2030;" horiz-adv-x="2473" 
d="M295 -39l905 1518h189l-910 -1518h-184zM764 1167q0 -192 -110 -318t-277 -126q-146 0 -230 82t-84 227q0 202 110.5 325.5t283.5 123.5q140 0 223.5 -85t83.5 -229zM383 887q58 0 100.5 95.5t42.5 231.5q0 62 -15.5 89.5t-53.5 27.5q-59 0 -102.5 -95.5t-43.5 -234.5
q0 -60 17 -87t55 -27zM1614 406q0 -194 -112 -320.5t-281 -126.5q-137 0 -221.5 83.5t-84.5 219.5q0 202 110 328.5t284 126.5q140 0 222.5 -83.5t82.5 -227.5zM1227 125q58 0 100.5 96t42.5 232q0 62 -16 90t-54 28q-59 0 -102 -96t-43 -235q0 -60 17 -87.5t55 -27.5z
M2404 406q0 -194 -112 -320.5t-281 -126.5q-137 0 -221 83.5t-84 219.5q0 202 109.5 328.5t283.5 126.5q140 0 222.5 -83.5t82.5 -227.5zM2023 125q58 0 101 96t43 232q0 62 -16 90t-54 28q-59 0 -102 -96t-43 -235q0 -61 16.5 -88t54.5 -27z" />
    <glyph glyph-name="guilsinglleft" unicode="&#x2039;" horiz-adv-x="645" 
d="M336 39l-307 481l374 447l181 -146l-277 -311l213 -338z" />
    <glyph glyph-name="guilsinglright" unicode="&#x203a;" horiz-adv-x="645" 
d="M238 967l307 -482l-377 -446l-180 143l276 312l-213 337z" />
    <glyph glyph-name="fraction" unicode="&#x2044;" horiz-adv-x="342" 
d="M-342 -39l815 1518h209l-809 -1518h-215z" />
    <glyph glyph-name="Euro" unicode="&#x20ac;" horiz-adv-x="1251" 
d="M1284 1376l-67 -329q-138 114 -299 114q-123 0 -206 -60t-134 -183h524l-70 -125h-477q-14 -63 -14 -134h422l-68 -122h-358q10 -129 88.5 -198t210.5 -69q120 0 286 88l-69 -350q-136 -47 -271 -47q-282 0 -440.5 150t-169.5 426h-195l52 122h143q2 54 14 134h-168
l52 125h139q69 265 254.5 413t447.5 148q202 0 373 -103z" />
    <glyph glyph-name="trademark" unicode="&#x2122;" horiz-adv-x="1705" 
d="M188 1464h502v-127h-164v-424h-174v424h-164v127zM797 1464h223l113 -303l114 303h221v-551h-155v390l-146 -390h-65l-150 390v-390h-155v551z" />
    <glyph glyph-name="minus" unicode="&#x2212;" horiz-adv-x="1705" 
d="M254 729h1198v-235h-1198v235z" />
    <glyph glyph-name="fi" unicode="&#xfb01;" horiz-adv-x="1400" 
d="M57 0l119 752h-168l41 258h168l16 102q1 9 6 41.5t7 42t6.5 37t7.5 39t9 34t11.5 35t13 30t16.5 32t20 27.5q55 68 141.5 106.5t190.5 38.5q97 0 210 -43l-45 -289q-62 29 -110 29q-62 0 -90.5 -39.5t-42.5 -132.5l-15 -90h222l-41 -258h-220l-118 -752h-355zM973 1311
q0 78 55.5 134t136.5 56q82 0 137.5 -53.5t55.5 -136.5q0 -82 -57 -137.5t-136 -55.5t-135.5 57.5t-56.5 135.5zM1147 0h-359l160 1010h359z" />
    <glyph glyph-name="fl" unicode="&#xfb02;" horiz-adv-x="1400" 
d="M57 0l119 752h-168l41 258h168l16 102q1 9 6 41.5t7 42t6.5 37t7.5 39t9 34t11.5 35t13 30t16.5 32t20 27.5q55 68 141.5 106.5t190.5 38.5q97 0 210 -43l-45 -289q-62 29 -110 29q-62 0 -90.5 -39.5t-42.5 -132.5l-15 -90h222l-41 -258h-220l-118 -752h-355zM1034 1550
h359l-246 -1550h-359z" />
    </font>
</defs>
</svg>
